<svg width="140" height="140" viewBox="0 0 140 140" fill="none" xmlns="http://www.w3.org/2000/svg">
<g filter="url(#filter0_f_32_3744)">
<mask id="path-1-inside-1_32_3744" fill="white">
<path fill-rule="evenodd" clip-rule="evenodd" d="M41.0108 86.0284C65.2896 86.0284 84.9715 66.3465 84.9715 42.0677C84.9715 34.9735 83.2911 28.2717 80.3065 22.3388C95.2493 29.3596 105.595 44.5459 105.595 62.1486C105.595 86.4274 85.9134 106.109 61.6345 106.109C44.4499 106.109 29.5683 96.249 22.3387 81.8775C28.0061 84.5402 34.3346 86.0284 41.0108 86.0284Z"/>
</mask>
<path fill-rule="evenodd" clip-rule="evenodd" d="M41.0108 86.0284C65.2896 86.0284 84.9715 66.3465 84.9715 42.0677C84.9715 34.9735 83.2911 28.2717 80.3065 22.3388C95.2493 29.3596 105.595 44.5459 105.595 62.1486C105.595 86.4274 85.9134 106.109 61.6345 106.109C44.4499 106.109 29.5683 96.249 22.3387 81.8775C28.0061 84.5402 34.3346 86.0284 41.0108 86.0284Z" fill="#FFBC1C" fill-opacity="0.6"/>
<path d="M80.3065 22.3388L80.9003 21.0752L77.2438 19.3572L79.0593 22.9662L80.3065 22.3388ZM22.3387 81.8775L22.9325 80.6138L19.276 78.8958L21.0915 82.5049L22.3387 81.8775ZM83.5753 42.0677C83.5753 65.5754 64.5185 84.6322 41.0108 84.6322V87.4246C66.0607 87.4246 86.3677 67.1176 86.3677 42.0677H83.5753ZM79.0593 22.9662C81.9481 28.7089 83.5753 35.1963 83.5753 42.0677H86.3677C86.3677 34.7507 84.634 27.8345 81.5538 21.7114L79.0593 22.9662ZM79.7128 23.6025C94.1842 30.4018 104.199 45.107 104.199 62.1486H106.991C106.991 43.9847 96.3144 28.3174 80.9003 21.0752L79.7128 23.6025ZM104.199 62.1486C104.199 85.6563 85.1423 104.713 61.6345 104.713V107.505C86.6844 107.505 106.991 87.1985 106.991 62.1486H104.199ZM61.6345 104.713C44.9977 104.713 30.5876 95.1686 23.586 81.25L21.0915 82.5049C28.5489 97.3294 43.9021 107.505 61.6345 107.505V104.713ZM41.0108 84.6322C34.5441 84.6322 28.4179 83.1911 22.9325 80.6138L21.745 83.1411C27.5942 85.8893 34.1251 87.4246 41.0108 87.4246V84.6322Z" fill="url(#paint0_linear_32_3744)" mask="url(#path-1-inside-1_32_3744)"/>
</g>
<mask id="path-3-inside-2_32_3744" fill="white">
<path fill-rule="evenodd" clip-rule="evenodd" d="M41.0108 86.0284C65.2896 86.0284 84.9715 66.3465 84.9715 42.0677C84.9715 34.9735 83.2911 28.2717 80.3065 22.3388C95.2493 29.3596 105.595 44.5459 105.595 62.1486C105.595 86.4274 85.9134 106.109 61.6345 106.109C44.4499 106.109 29.5683 96.249 22.3387 81.8775C28.0061 84.5402 34.3346 86.0284 41.0108 86.0284Z"/>
</mask>
<path fill-rule="evenodd" clip-rule="evenodd" d="M41.0108 86.0284C65.2896 86.0284 84.9715 66.3465 84.9715 42.0677C84.9715 34.9735 83.2911 28.2717 80.3065 22.3388C95.2493 29.3596 105.595 44.5459 105.595 62.1486C105.595 86.4274 85.9134 106.109 61.6345 106.109C44.4499 106.109 29.5683 96.249 22.3387 81.8775C28.0061 84.5402 34.3346 86.0284 41.0108 86.0284Z" fill="url(#paint1_linear_32_3744)"/>
<path d="M80.3065 22.3388L80.9003 21.0752L77.2438 19.3572L79.0593 22.9662L80.3065 22.3388ZM22.3387 81.8775L22.9325 80.6138L19.276 78.8958L21.0915 82.5049L22.3387 81.8775ZM83.5753 42.0677C83.5753 65.5754 64.5185 84.6322 41.0108 84.6322V87.4246C66.0607 87.4246 86.3677 67.1176 86.3677 42.0677H83.5753ZM79.0593 22.9662C81.9481 28.7089 83.5753 35.1963 83.5753 42.0677H86.3677C86.3677 34.7507 84.634 27.8345 81.5538 21.7114L79.0593 22.9662ZM79.7128 23.6025C94.1842 30.4018 104.199 45.107 104.199 62.1486H106.991C106.991 43.9847 96.3144 28.3174 80.9003 21.0752L79.7128 23.6025ZM104.199 62.1486C104.199 85.6563 85.1423 104.713 61.6345 104.713V107.505C86.6844 107.505 106.991 87.1985 106.991 62.1486H104.199ZM61.6345 104.713C44.9977 104.713 30.5876 95.1686 23.586 81.25L21.0915 82.5049C28.5489 97.3294 43.9021 107.505 61.6345 107.505V104.713ZM41.0108 84.6322C34.5441 84.6322 28.4179 83.1911 22.9325 80.6138L21.745 83.1411C27.5942 85.8893 34.1251 87.4246 41.0108 87.4246V84.6322Z" fill="url(#paint2_linear_32_3744)" mask="url(#path-3-inside-2_32_3744)"/>
<defs>
<filter id="filter0_f_32_3744" x="1.39612" y="1.39618" width="125.142" height="125.656" filterUnits="userSpaceOnUse" color-interpolation-filters="sRGB">
<feFlood flood-opacity="0" result="BackgroundImageFix"/>
<feBlend mode="normal" in="SourceGraphic" in2="BackgroundImageFix" result="shape"/>
<feGaussianBlur stdDeviation="10.4713" result="effect1_foregroundBlur_32_3744"/>
</filter>
<linearGradient id="paint0_linear_32_3744" x1="63.967" y1="22.3388" x2="63.967" y2="106.109" gradientUnits="userSpaceOnUse">
<stop stop-color="white"/>
<stop offset="1" stop-color="white" stop-opacity="0"/>
</linearGradient>
<linearGradient id="paint1_linear_32_3744" x1="63.967" y1="22.3388" x2="35.3641" y2="105.918" gradientUnits="userSpaceOnUse">
<stop stop-color="#FFBC1C"/>
<stop offset="1" stop-color="#FFFA7D"/>
</linearGradient>
<linearGradient id="paint2_linear_32_3744" x1="94.4949" y1="38.7646" x2="22.3387" y2="123.24" gradientUnits="userSpaceOnUse">
<stop stop-color="white"/>
<stop offset="1" stop-color="white" stop-opacity="0"/>
</linearGradient>
</defs>
</svg>
