<svg width="140" height="140" viewBox="0 0 140 140" fill="none" xmlns="http://www.w3.org/2000/svg">
<g clip-path="url(#clip0_32_3748)">
<g filter="url(#filter0_f_32_3748)">
<circle cx="41.2402" cy="56.598" r="29.1454" fill="#FFAE12"/>
</g>
<circle cx="41.2401" cy="56.598" r="29.3726" fill="url(#paint0_linear_32_3748)" stroke="url(#paint1_linear_32_3748)" stroke-width="1.39617"/>
<mask id="path-3-inside-1_32_3748" fill="white">
<path fill-rule="evenodd" clip-rule="evenodd" d="M41.1014 111.693C41.0242 111.694 40.947 111.694 40.8696 111.694C27.16 111.694 16.0461 100.58 16.0461 86.8705C16.0461 73.1609 27.16 62.0471 40.8696 62.0471C45.3007 62.0471 49.4607 63.2081 53.0619 65.2425C58.4004 55.6334 68.6536 49.1308 80.4255 49.1308C95.421 49.1308 107.952 59.6821 110.999 73.7654C111.234 73.7568 111.47 73.7524 111.707 73.7524C122.185 73.7524 130.678 82.2459 130.678 92.7232C130.678 103.2 122.185 111.694 111.707 111.694C111.451 111.694 111.195 111.689 110.941 111.679C110.727 111.689 110.511 111.694 110.294 111.694H41.2731C41.2158 111.694 41.1586 111.694 41.1014 111.693Z"/>
</mask>
<path fill-rule="evenodd" clip-rule="evenodd" d="M41.1014 111.693C41.0242 111.694 40.947 111.694 40.8696 111.694C27.16 111.694 16.0461 100.58 16.0461 86.8705C16.0461 73.1609 27.16 62.0471 40.8696 62.0471C45.3007 62.0471 49.4607 63.2081 53.0619 65.2425C58.4004 55.6334 68.6536 49.1308 80.4255 49.1308C95.421 49.1308 107.952 59.6821 110.999 73.7654C111.234 73.7568 111.47 73.7524 111.707 73.7524C122.185 73.7524 130.678 82.2459 130.678 92.7232C130.678 103.2 122.185 111.694 111.707 111.694C111.451 111.694 111.195 111.689 110.941 111.679C110.727 111.689 110.511 111.694 110.294 111.694H41.2731C41.2158 111.694 41.1586 111.694 41.1014 111.693Z" fill="url(#paint2_linear_32_3748)"/>
<path d="M41.1014 111.693L41.1188 110.297L41.1037 110.297L41.0887 110.297L41.1014 111.693ZM53.0619 65.2425L52.3751 66.4581L53.5994 67.1498L54.2823 65.9206L53.0619 65.2425ZM110.999 73.7654L109.635 74.0607L109.882 75.2035L111.051 75.1606L110.999 73.7654ZM110.941 111.679L110.997 110.284L110.936 110.281L110.876 110.284L110.941 111.679ZM41.0887 110.297C41.0157 110.297 40.9427 110.298 40.8696 110.298V113.09C40.9512 113.09 41.0328 113.09 41.1142 113.089L41.0887 110.297ZM40.8696 110.298C27.9311 110.298 17.4423 99.8091 17.4423 86.8705H14.65C14.65 101.351 26.3889 113.09 40.8696 113.09V110.298ZM17.4423 86.8705C17.4423 73.932 27.9311 63.4433 40.8696 63.4433V60.6509C26.3889 60.6509 14.65 72.3898 14.65 86.8705H17.4423ZM40.8696 63.4433C45.0539 63.4433 48.978 64.539 52.3751 66.4581L53.7486 64.0269C49.9434 61.8772 45.5476 60.6509 40.8696 60.6509V63.4433ZM54.2823 65.9206C59.3846 56.7367 69.1808 50.527 80.4255 50.527V47.7346C68.1263 47.7346 57.4162 54.53 51.8414 64.5645L54.2823 65.9206ZM80.4255 50.527C94.75 50.527 106.724 60.6063 109.635 74.0607L112.364 73.4701C109.181 58.7578 96.092 47.7346 80.4255 47.7346V50.527ZM111.051 75.1606C111.268 75.1526 111.487 75.1486 111.707 75.1486V72.3563C111.453 72.3563 111.2 72.3609 110.948 72.3702L111.051 75.1606ZM111.707 75.1486C121.414 75.1486 129.282 83.017 129.282 92.7232H132.074C132.074 81.4749 122.956 72.3563 111.707 72.3563V75.1486ZM129.282 92.7232C129.282 102.429 121.414 110.298 111.707 110.298V113.09C122.956 113.09 132.074 103.972 132.074 92.7232H129.282ZM111.707 110.298C111.469 110.298 111.232 110.293 110.997 110.284L110.886 113.074C111.158 113.085 111.432 113.09 111.707 113.09V110.298ZM110.876 110.284C110.683 110.293 110.489 110.298 110.294 110.298V113.09C110.533 113.09 110.771 113.085 111.007 113.073L110.876 110.284ZM110.294 110.298H41.2731V113.09H110.294V110.298ZM41.2731 110.298C41.2216 110.298 41.1702 110.298 41.1188 110.297L41.0841 113.089C41.147 113.09 41.21 113.09 41.2731 113.09V110.298Z" fill="url(#paint3_linear_32_3748)" mask="url(#path-3-inside-1_32_3748)"/>
<g filter="url(#filter1_f_32_3748)">
<path fill-rule="evenodd" clip-rule="evenodd" d="M41.5664 86.2098C57.368 86.4249 70.352 73.7897 70.5672 57.9882C70.6059 55.1453 70.2286 52.3937 69.4919 49.7912C62.3486 51.6784 56.3358 56.3846 52.7355 62.6621C49.6083 60.8388 45.9816 59.7731 42.1038 59.7203C31.6484 59.578 22.8176 66.8455 20.6122 76.6565C25.7644 82.4237 33.2242 86.0962 41.5664 86.2098Z" fill="#FFAE12" fill-opacity="0.7"/>
</g>
</g>
<defs>
<filter id="filter0_f_32_3748" x="-1.86702" y="13.4909" width="86.2144" height="86.2144" filterUnits="userSpaceOnUse" color-interpolation-filters="sRGB">
<feFlood flood-opacity="0" result="BackgroundImageFix"/>
<feBlend mode="normal" in="SourceGraphic" in2="BackgroundImageFix" result="shape"/>
<feGaussianBlur stdDeviation="6.98087" result="effect1_foregroundBlur_32_3748"/>
</filter>
<filter id="filter1_f_32_3748" x="-26.8578" y="2.32125" width="144.898" height="131.361" filterUnits="userSpaceOnUse" color-interpolation-filters="sRGB">
<feFlood flood-opacity="0" result="BackgroundImageFix"/>
<feBlend mode="normal" in="SourceGraphic" in2="BackgroundImageFix" result="shape"/>
<feGaussianBlur stdDeviation="23.735" result="effect1_foregroundBlur_32_3748"/>
</filter>
<linearGradient id="paint0_linear_32_3748" x1="64.2572" y1="77.202" x2="19.1512" y2="38.0359" gradientUnits="userSpaceOnUse">
<stop stop-color="#FF8744"/>
<stop offset="1" stop-color="#FFFA7D"/>
</linearGradient>
<linearGradient id="paint1_linear_32_3748" x1="41.2401" y1="26.5273" x2="52.1918" y2="84.6269" gradientUnits="userSpaceOnUse">
<stop stop-color="white"/>
<stop offset="1" stop-color="white" stop-opacity="0.54"/>
</linearGradient>
<linearGradient id="paint2_linear_32_3748" x1="42.4841" y1="69.7161" x2="130.678" y2="108.465" gradientUnits="userSpaceOnUse">
<stop stop-color="white" stop-opacity="0.81"/>
<stop offset="1" stop-color="#98E5FD" stop-opacity="0.94"/>
</linearGradient>
<linearGradient id="paint3_linear_32_3748" x1="46.1168" y1="62.4507" x2="125.834" y2="107.254" gradientUnits="userSpaceOnUse">
<stop stop-color="white"/>
<stop offset="1" stop-color="white" stop-opacity="0.36"/>
</linearGradient>
<clipPath id="clip0_32_3748">
<rect width="140" height="140" fill="white"/>
</clipPath>
</defs>
</svg>
