<svg width="140" height="140" viewBox="0 0 140 140" fill="none" xmlns="http://www.w3.org/2000/svg">
<g clip-path="url(#clip0_32_3779)">
<g filter="url(#filter0_f_32_3779)">
<mask id="path-1-inside-1_32_3779" fill="white">
<path fill-rule="evenodd" clip-rule="evenodd" d="M22.9279 69.9999C40.0322 69.9999 53.8979 56.1342 53.8979 39.03C53.8979 34.0321 52.714 29.3108 50.6115 25.1311C61.1385 30.0773 68.427 40.7758 68.427 53.1767C68.427 70.281 54.5613 84.1467 37.457 84.1467C25.3506 84.1467 14.8666 77.2002 9.77344 67.0755C13.7661 68.9515 18.2245 69.9999 22.9279 69.9999Z"/>
</mask>
<path fill-rule="evenodd" clip-rule="evenodd" d="M22.9279 69.9999C40.0322 69.9999 53.8979 56.1342 53.8979 39.03C53.8979 34.0321 52.714 29.3108 50.6115 25.1311C61.1385 30.0773 68.427 40.7758 68.427 53.1767C68.427 70.281 54.5613 84.1467 37.457 84.1467C25.3506 84.1467 14.8666 77.2002 9.77344 67.0755C13.7661 68.9515 18.2245 69.9999 22.9279 69.9999Z" fill="#FFBC1C" fill-opacity="0.6"/>
<path d="M50.6115 25.1311L51.2052 23.8675L47.5487 22.1495L49.3642 25.7586L50.6115 25.1311ZM9.77344 67.0755L10.3672 65.8119L6.71065 64.0939L8.52618 67.703L9.77344 67.0755ZM52.5017 39.03C52.5017 55.3631 39.2611 68.6038 22.9279 68.6038V71.3961C40.8032 71.3961 55.2941 56.9053 55.2941 39.03H52.5017ZM49.3642 25.7586C51.3711 29.748 52.5017 34.2549 52.5017 39.03H55.2941C55.2941 33.8093 54.057 28.8736 51.8587 24.5037L49.3642 25.7586ZM50.0177 26.3948C60.0734 31.1194 67.0308 41.337 67.0308 53.1767H69.8232C69.8232 40.2147 62.2036 29.0351 51.2052 23.8675L50.0177 26.3948ZM67.0308 53.1767C67.0308 69.5099 53.7902 82.7505 37.457 82.7505V85.5429C55.3324 85.5429 69.8232 71.0521 69.8232 53.1767H67.0308ZM37.457 82.7505C25.8984 82.7505 15.886 76.1198 11.0207 66.4481L8.52618 67.703C13.8472 78.2806 24.8028 85.5429 37.457 85.5429V82.7505ZM22.9279 68.6038C18.434 68.6038 14.1779 67.6024 10.3672 65.8119L9.17971 68.3392C13.3542 70.3006 18.0151 71.3961 22.9279 71.3961V68.6038Z" fill="url(#paint0_linear_32_3779)" mask="url(#path-1-inside-1_32_3779)"/>
</g>
<mask id="path-3-inside-2_32_3779" fill="white">
<path fill-rule="evenodd" clip-rule="evenodd" d="M22.9279 69.9999C40.0322 69.9999 53.8979 56.1342 53.8979 39.03C53.8979 34.0321 52.714 29.3108 50.6115 25.1311C61.1385 30.0773 68.427 40.7758 68.427 53.1767C68.427 70.281 54.5613 84.1467 37.457 84.1467C25.3506 84.1467 14.8666 77.2002 9.77344 67.0755C13.7661 68.9515 18.2245 69.9999 22.9279 69.9999Z"/>
</mask>
<path fill-rule="evenodd" clip-rule="evenodd" d="M22.9279 69.9999C40.0322 69.9999 53.8979 56.1342 53.8979 39.03C53.8979 34.0321 52.714 29.3108 50.6115 25.1311C61.1385 30.0773 68.427 40.7758 68.427 53.1767C68.427 70.281 54.5613 84.1467 37.457 84.1467C25.3506 84.1467 14.8666 77.2002 9.77344 67.0755C13.7661 68.9515 18.2245 69.9999 22.9279 69.9999Z" fill="url(#paint1_linear_32_3779)"/>
<path d="M50.6115 25.1311L51.2052 23.8675L47.5487 22.1495L49.3642 25.7586L50.6115 25.1311ZM9.77344 67.0755L10.3672 65.8119L6.71065 64.0939L8.52618 67.703L9.77344 67.0755ZM52.5017 39.03C52.5017 55.3631 39.2611 68.6038 22.9279 68.6038V71.3961C40.8032 71.3961 55.2941 56.9053 55.2941 39.03H52.5017ZM49.3642 25.7586C51.3711 29.748 52.5017 34.2549 52.5017 39.03H55.2941C55.2941 33.8093 54.057 28.8736 51.8587 24.5037L49.3642 25.7586ZM50.0177 26.3948C60.0734 31.1194 67.0308 41.337 67.0308 53.1767H69.8232C69.8232 40.2147 62.2036 29.0351 51.2052 23.8675L50.0177 26.3948ZM67.0308 53.1767C67.0308 69.5099 53.7902 82.7505 37.457 82.7505V85.5429C55.3324 85.5429 69.8232 71.0521 69.8232 53.1767H67.0308ZM37.457 82.7505C25.8984 82.7505 15.886 76.1198 11.0207 66.4481L8.52618 67.703C13.8472 78.2806 24.8028 85.5429 37.457 85.5429V82.7505ZM22.9279 68.6038C18.434 68.6038 14.1779 67.6024 10.3672 65.8119L9.17971 68.3392C13.3542 70.3006 18.0151 71.3961 22.9279 71.3961V68.6038Z" fill="url(#paint2_linear_32_3779)" mask="url(#path-3-inside-2_32_3779)"/>
<mask id="path-5-inside-3_32_3779" fill="white">
<path fill-rule="evenodd" clip-rule="evenodd" d="M43.3955 114.646C43.32 114.646 43.2445 114.647 43.1688 114.647C29.7244 114.647 18.8254 103.748 18.8254 90.3032C18.8254 76.8587 29.7244 65.9598 43.1688 65.9598C47.5143 65.9598 51.5938 67.0984 55.1254 69.0935C60.3607 59.6702 70.4156 53.2933 81.9599 53.2933C96.6654 53.2933 108.954 63.6406 111.943 77.4516C112.173 77.4431 112.404 77.4389 112.637 77.4389C122.911 77.4389 131.24 85.7681 131.24 96.0428C131.24 106.317 122.911 114.647 112.637 114.647C112.385 114.647 112.134 114.642 111.885 114.632C111.675 114.642 111.464 114.647 111.251 114.647H43.5646C43.5081 114.647 43.4518 114.646 43.3955 114.646Z"/>
</mask>
<path fill-rule="evenodd" clip-rule="evenodd" d="M43.3955 114.646C43.32 114.646 43.2445 114.647 43.1688 114.647C29.7244 114.647 18.8254 103.748 18.8254 90.3032C18.8254 76.8587 29.7244 65.9598 43.1688 65.9598C47.5143 65.9598 51.5938 67.0984 55.1254 69.0935C60.3607 59.6702 70.4156 53.2933 81.9599 53.2933C96.6654 53.2933 108.954 63.6406 111.943 77.4516C112.173 77.4431 112.404 77.4389 112.637 77.4389C122.911 77.4389 131.24 85.7681 131.24 96.0428C131.24 106.317 122.911 114.647 112.637 114.647C112.385 114.647 112.134 114.642 111.885 114.632C111.675 114.642 111.464 114.647 111.251 114.647H43.5646C43.5081 114.647 43.4518 114.646 43.3955 114.646Z" fill="url(#paint3_linear_32_3779)" fill-opacity="0.5"/>
<path d="M43.3955 114.646L43.4129 113.25L43.3978 113.249L43.3828 113.249L43.3955 114.646ZM55.1254 69.0935L54.4386 70.3091L55.663 71.0008L56.3459 69.7716L55.1254 69.0935ZM111.943 77.4516L110.578 77.7469L110.825 78.8897L111.994 78.8468L111.943 77.4516ZM111.885 114.632L111.94 113.237L111.88 113.234L111.819 113.237L111.885 114.632ZM43.3828 113.249C43.3115 113.25 43.2402 113.25 43.1688 113.25V116.043C43.2487 116.043 43.3285 116.042 43.4082 116.042L43.3828 113.249ZM43.1688 113.25C30.4954 113.25 20.2216 102.977 20.2216 90.3032H17.4293C17.4293 104.519 28.9533 116.043 43.1688 116.043V113.25ZM20.2216 90.3032C20.2216 77.6298 30.4954 67.356 43.1688 67.356V64.5637C28.9533 64.5637 17.4293 76.0877 17.4293 90.3032H20.2216ZM43.1688 67.356C47.2674 67.356 51.1111 68.4293 54.4386 70.3091L55.8121 67.8779C52.0765 65.7675 47.7612 64.5637 43.1688 64.5637V67.356ZM56.3459 69.7716C61.3449 60.7735 70.9429 54.6895 81.9599 54.6895V51.8972C69.8883 51.8972 59.3765 58.5668 53.9049 68.4155L56.3459 69.7716ZM81.9599 54.6895C95.9944 54.6895 107.726 64.5648 110.578 77.7469L113.307 77.1563C110.183 62.7163 97.3364 51.8972 81.9599 51.8972V54.6895ZM111.994 78.8468C112.207 78.839 112.421 78.8351 112.637 78.8351V76.0427C112.387 76.0427 112.139 76.0473 111.891 76.0563L111.994 78.8468ZM112.637 78.8351C122.14 78.8351 129.844 86.5392 129.844 96.0428H132.637C132.637 84.997 123.682 76.0427 112.637 76.0427V78.8351ZM129.844 96.0428C129.844 105.546 122.14 113.251 112.637 113.251V116.043C123.682 116.043 132.637 107.089 132.637 96.0428H129.844ZM112.637 113.251C112.403 113.251 112.171 113.246 111.94 113.237L111.829 116.027C112.097 116.038 112.366 116.043 112.637 116.043V113.251ZM111.819 113.237C111.631 113.246 111.442 113.25 111.251 113.25V116.043C111.486 116.043 111.719 116.037 111.951 116.026L111.819 113.237ZM111.251 113.25H43.5646V116.043H111.251V113.25ZM43.5646 113.25C43.514 113.25 43.4634 113.25 43.4129 113.25L43.3781 116.042C43.4401 116.042 43.5023 116.043 43.5646 116.043V113.25Z" fill="url(#paint4_linear_32_3779)" mask="url(#path-5-inside-3_32_3779)"/>
</g>
<defs>
<filter id="filter0_f_32_3779" x="-30.7156" y="-15.3579" width="139.632" height="139.994" filterUnits="userSpaceOnUse" color-interpolation-filters="sRGB">
<feFlood flood-opacity="0" result="BackgroundImageFix"/>
<feBlend mode="normal" in="SourceGraphic" in2="BackgroundImageFix" result="shape"/>
<feGaussianBlur stdDeviation="20.2445" result="effect1_foregroundBlur_32_3779"/>
</filter>
<linearGradient id="paint0_linear_32_3779" x1="39.1002" y1="25.1311" x2="39.1002" y2="84.1467" gradientUnits="userSpaceOnUse">
<stop stop-color="white"/>
<stop offset="1" stop-color="white" stop-opacity="0"/>
</linearGradient>
<linearGradient id="paint1_linear_32_3779" x1="39.1002" y1="25.1311" x2="18.9497" y2="84.0124" gradientUnits="userSpaceOnUse">
<stop stop-color="#FFBC1C"/>
<stop offset="1" stop-color="#FFFA7D"/>
</linearGradient>
<linearGradient id="paint2_linear_32_3779" x1="68.4805" y1="34.607" x2="-9.04533" y2="107.631" gradientUnits="userSpaceOnUse">
<stop stop-color="white"/>
<stop offset="1" stop-color="white" stop-opacity="0"/>
</linearGradient>
<linearGradient id="paint3_linear_32_3779" x1="18.8254" y1="71.3701" x2="124.744" y2="107.241" gradientUnits="userSpaceOnUse">
<stop stop-color="#EEEEEE"/>
<stop offset="1" stop-color="#A4A4A4"/>
</linearGradient>
<linearGradient id="paint4_linear_32_3779" x1="49.919" y1="66.4483" x2="125.261" y2="108.704" gradientUnits="userSpaceOnUse">
<stop stop-color="white"/>
<stop offset="1" stop-color="#C0C0C0" stop-opacity="0"/>
</linearGradient>
<clipPath id="clip0_32_3779">
<rect width="140" height="140" fill="white"/>
</clipPath>
</defs>
</svg>
