<svg width="140" height="140" viewBox="0 0 140 140" fill="none" xmlns="http://www.w3.org/2000/svg">
<mask id="path-1-inside-1_32_3695" fill="white">
<path fill-rule="evenodd" clip-rule="evenodd" d="M28.8282 91.5441C28.7563 91.5448 28.6843 91.5451 28.6123 91.5451C15.8945 91.5451 5.58472 81.2353 5.58472 68.5176C5.58472 55.7998 15.8945 45.49 28.6123 45.49C32.7229 45.49 36.5819 46.5671 39.9226 48.4544C44.8748 39.5403 54.3863 33.5082 65.3066 33.5082C79.2171 33.5082 90.8416 43.2961 93.6686 56.3605C93.8864 56.3526 94.1052 56.3485 94.325 56.3485C104.044 56.3485 111.923 64.2276 111.923 73.9468C111.923 83.6661 104.044 91.5451 94.325 91.5451C94.087 91.5451 93.8501 91.5404 93.6143 91.531C93.4156 91.5404 93.2156 91.5451 93.0145 91.5451H65.3216C65.3166 91.5451 65.3116 91.5451 65.3066 91.5451C65.3016 91.5451 65.2966 91.5451 65.2915 91.5451H28.9867C28.9338 91.5451 28.881 91.5448 28.8282 91.5441Z"/>
</mask>
<path fill-rule="evenodd" clip-rule="evenodd" d="M28.8282 91.5441C28.7563 91.5448 28.6843 91.5451 28.6123 91.5451C15.8945 91.5451 5.58472 81.2353 5.58472 68.5176C5.58472 55.7998 15.8945 45.49 28.6123 45.49C32.7229 45.49 36.5819 46.5671 39.9226 48.4544C44.8748 39.5403 54.3863 33.5082 65.3066 33.5082C79.2171 33.5082 90.8416 43.2961 93.6686 56.3605C93.8864 56.3526 94.1052 56.3485 94.325 56.3485C104.044 56.3485 111.923 64.2276 111.923 73.9468C111.923 83.6661 104.044 91.5451 94.325 91.5451C94.087 91.5451 93.8501 91.5404 93.6143 91.531C93.4156 91.5404 93.2156 91.5451 93.0145 91.5451H65.3216C65.3166 91.5451 65.3116 91.5451 65.3066 91.5451C65.3016 91.5451 65.2966 91.5451 65.2915 91.5451H28.9867C28.9338 91.5451 28.881 91.5448 28.8282 91.5441Z" fill="url(#paint0_linear_32_3695)"/>
<path d="M28.8282 91.5441L28.8455 90.1481L28.8305 90.1479L28.8154 90.148L28.8282 91.5441ZM39.9226 48.4544L39.2358 49.67L40.4601 50.3616L41.143 49.1324L39.9226 48.4544ZM93.6686 56.3605L92.304 56.6558L92.5513 57.7986L93.7197 57.7558L93.6686 56.3605ZM93.6143 91.531L93.6697 90.1359L93.6092 90.1335L93.5487 90.1364L93.6143 91.531ZM28.8154 90.148C28.7478 90.1486 28.6801 90.1489 28.6123 90.1489V92.9413C28.6886 92.9413 28.7649 92.9409 28.8411 92.9402L28.8154 90.148ZM28.6123 90.1489C16.6656 90.1489 6.98089 80.4643 6.98089 68.5176H4.18854C4.18854 82.0064 15.1234 92.9413 28.6123 92.9413V90.1489ZM6.98089 68.5176C6.98089 56.5709 16.6656 46.8862 28.6123 46.8862V44.0938C15.1234 44.0938 4.18854 55.0287 4.18854 68.5176H6.98089ZM28.6123 46.8862C32.476 46.8862 36.0992 47.8979 39.2358 49.67L40.6093 47.2388C37.0646 45.2362 32.9697 44.0938 28.6123 44.0938V46.8862ZM41.143 49.1324C45.859 40.6437 54.9135 34.9044 65.3066 34.9044V32.112C53.859 32.112 43.8906 38.437 38.7021 47.7763L41.143 49.1324ZM65.3066 34.9044C78.5462 34.9044 89.6131 44.2203 92.304 56.6558L95.0332 56.0653C92.0701 42.3719 79.8881 32.112 65.3066 32.112V34.9044ZM93.7197 57.7558C93.9205 57.7484 94.1223 57.7447 94.325 57.7447V54.9524C94.0882 54.9524 93.8523 54.9567 93.6174 54.9653L93.7197 57.7558ZM94.325 57.7447C103.273 57.7447 110.527 64.9986 110.527 73.9468H113.319C113.319 63.4565 104.815 54.9524 94.325 54.9524V57.7447ZM110.527 73.9468C110.527 82.895 103.273 90.1489 94.325 90.1489V92.9413C104.815 92.9413 113.319 84.4372 113.319 73.9468H110.527ZM94.325 90.1489C94.1055 90.1489 93.887 90.1446 93.6697 90.1359L93.5589 92.9261C93.8131 92.9362 94.0685 92.9413 94.325 92.9413V90.1489ZM93.5487 90.1364C93.3717 90.1447 93.1937 90.1489 93.0145 90.1489V92.9413C93.2375 92.9413 93.4594 92.936 93.68 92.9256L93.5487 90.1364ZM93.0145 90.1489H65.3216V92.9413H93.0145V90.1489ZM65.3216 90.1489C65.3188 90.1489 65.316 90.1489 65.3136 90.1489C65.311 90.1489 65.3088 90.1489 65.3066 90.1489V92.9413C65.3094 92.9413 65.3122 92.9413 65.3146 92.9413C65.3172 92.9413 65.3194 92.9413 65.3216 92.9413V90.1489ZM65.3066 90.1489C65.3044 90.1489 65.3021 90.1489 65.2996 90.1489C65.2971 90.1489 65.2944 90.1489 65.2915 90.1489V92.9413C65.2937 92.9413 65.296 92.9413 65.2985 92.9413C65.301 92.9413 65.3038 92.9413 65.3066 92.9413V90.1489ZM65.2915 90.1489H28.9867V92.9413H65.2915V90.1489ZM28.9867 90.1489C28.9396 90.1489 28.8925 90.1486 28.8455 90.1481L28.811 92.9402C28.8695 92.9409 28.928 92.9413 28.9867 92.9413V90.1489Z" fill="url(#paint1_linear_32_3695)" mask="url(#path-1-inside-1_32_3695)"/>
<mask id="path-3-inside-2_32_3695" fill="white">
<path fill-rule="evenodd" clip-rule="evenodd" d="M75.4895 107.225C75.4387 107.226 75.388 107.226 75.3371 107.226C66.326 107.226 59.0211 99.9212 59.0211 90.9101C59.0211 81.899 66.326 74.5941 75.3371 74.5941C78.2497 74.5941 80.984 75.3572 83.351 76.6945C86.8599 70.3785 93.5992 66.1045 101.337 66.1045C111.193 66.1045 119.429 73.0396 121.432 82.2963C121.587 82.2907 121.742 82.2878 121.897 82.2878C128.784 82.2878 134.367 87.8705 134.367 94.757C134.367 101.643 128.784 107.226 121.897 107.226C121.729 107.226 121.561 107.223 121.394 107.216C121.253 107.223 121.111 107.226 120.969 107.226H101.349C101.345 107.226 101.341 107.226 101.337 107.226C101.332 107.226 101.328 107.226 101.324 107.226H75.6025C75.5648 107.226 75.5271 107.226 75.4895 107.225Z"/>
</mask>
<path fill-rule="evenodd" clip-rule="evenodd" d="M75.4895 107.225C75.4387 107.226 75.388 107.226 75.3371 107.226C66.326 107.226 59.0211 99.9212 59.0211 90.9101C59.0211 81.899 66.326 74.5941 75.3371 74.5941C78.2497 74.5941 80.984 75.3572 83.351 76.6945C86.8599 70.3785 93.5992 66.1045 101.337 66.1045C111.193 66.1045 119.429 73.0396 121.432 82.2963C121.587 82.2907 121.742 82.2878 121.897 82.2878C128.784 82.2878 134.367 87.8705 134.367 94.757C134.367 101.643 128.784 107.226 121.897 107.226C121.729 107.226 121.561 107.223 121.394 107.216C121.253 107.223 121.111 107.226 120.969 107.226H101.349C101.345 107.226 101.341 107.226 101.337 107.226C101.332 107.226 101.328 107.226 101.324 107.226H75.6025C75.5648 107.226 75.5271 107.226 75.4895 107.225Z" fill="url(#paint2_linear_32_3695)" fill-opacity="0.5"/>
<path d="M75.4895 107.225L75.5069 105.829L75.4918 105.829L75.4766 105.829L75.4895 107.225ZM83.351 76.6945L82.6642 77.9101L83.8885 78.6017L84.5715 77.3725L83.351 76.6945ZM121.432 82.2963L120.068 82.5916L120.315 83.7344L121.484 83.6916L121.432 82.2963ZM121.394 107.216L121.449 105.821L121.389 105.819L121.328 105.821L121.394 107.216ZM75.4766 105.829C75.4302 105.83 75.3837 105.83 75.3371 105.83V108.622C75.3922 108.622 75.4473 108.622 75.5023 108.622L75.4766 105.829ZM75.3371 105.83C67.0971 105.83 60.4173 99.1501 60.4173 90.9101H57.6249C57.6249 100.692 65.555 108.622 75.3371 108.622V105.83ZM60.4173 90.9101C60.4173 82.6701 67.0971 75.9903 75.3371 75.9903V73.1979C65.555 73.1979 57.6249 81.1279 57.6249 90.9101H60.4173ZM75.3371 75.9903C78.0028 75.9903 80.5013 76.6881 82.6642 77.9101L84.0377 75.4789C81.4667 74.0264 78.4965 73.1979 75.3371 73.1979V75.9903ZM84.5715 77.3725C87.8441 71.4818 94.1264 67.5006 101.337 67.5006V64.7083C93.0719 64.7083 85.8757 69.2752 82.1305 76.0164L84.5715 77.3725ZM101.337 67.5006C110.522 67.5006 118.201 73.9639 120.068 82.5916L122.797 82.0011C120.658 72.1154 111.864 64.7083 101.337 64.7083V67.5006ZM121.484 83.6916C121.621 83.6865 121.759 83.684 121.897 83.684V80.8917C121.725 80.8917 121.553 80.8948 121.381 80.9011L121.484 83.6916ZM121.897 83.684C128.013 83.684 132.97 88.6415 132.97 94.757H135.763C135.763 87.0994 129.555 80.8917 121.897 80.8917V83.684ZM132.97 94.757C132.97 100.872 128.013 105.83 121.897 105.83V108.622C129.555 108.622 135.763 102.415 135.763 94.757H132.97ZM121.897 105.83C121.747 105.83 121.598 105.827 121.449 105.821L121.338 108.611C121.524 108.619 121.71 108.622 121.897 108.622V105.83ZM121.328 105.821C121.209 105.827 121.089 105.83 120.969 105.83V108.622C121.133 108.622 121.297 108.618 121.459 108.611L121.328 105.821ZM120.969 105.83H101.349V108.622H120.969V105.83ZM101.349 105.83C101.347 105.83 101.344 105.83 101.342 105.83C101.34 105.83 101.338 105.83 101.337 105.83V108.622C101.339 108.622 101.342 108.622 101.344 108.622C101.346 108.622 101.348 108.622 101.349 108.622V105.83ZM101.337 105.83C101.335 105.83 101.333 105.83 101.331 105.83C101.329 105.83 101.326 105.83 101.324 105.83V108.622C101.326 108.622 101.328 108.622 101.33 108.622C101.332 108.622 101.334 108.622 101.337 108.622V105.83ZM101.324 105.83H75.6025V108.622H101.324V105.83ZM75.6025 105.83C75.5706 105.83 75.5387 105.83 75.5069 105.829L75.472 108.621C75.5154 108.622 75.5589 108.622 75.6025 108.622V105.83Z" fill="url(#paint3_linear_32_3695)" mask="url(#path-3-inside-2_32_3695)"/>
<g filter="url(#filter0_f_32_3695)">
<path fill-rule="evenodd" clip-rule="evenodd" d="M111.082 68.5564C111.628 70.2552 111.923 72.0666 111.923 73.9468C111.923 83.6661 104.044 91.5451 94.325 91.5451C94.0869 91.5451 93.85 91.5404 93.6143 91.531C93.4155 91.5404 93.2156 91.5451 93.0145 91.5451H65.3216L65.3065 91.5451L65.2915 91.5451H59.0332C59.0252 91.3344 59.0211 91.1227 59.0211 90.9101C59.0211 81.899 66.326 74.5941 75.3371 74.5941C78.2497 74.5941 80.984 75.3572 83.351 76.6945C86.8599 70.3785 93.5992 66.1045 101.337 66.1045C104.863 66.1045 108.182 66.9922 111.082 68.5564Z" fill="#A9A9A9"/>
</g>
<defs>
<filter id="filter0_f_32_3695" x="38.0785" y="45.1618" width="94.7873" height="67.3259" filterUnits="userSpaceOnUse" color-interpolation-filters="sRGB">
<feFlood flood-opacity="0" result="BackgroundImageFix"/>
<feBlend mode="normal" in="SourceGraphic" in2="BackgroundImageFix" result="shape"/>
<feGaussianBlur stdDeviation="10.4713" result="effect1_foregroundBlur_32_3695"/>
</filter>
<linearGradient id="paint0_linear_32_3695" x1="5.58472" y1="50.6079" x2="105.778" y2="84.54" gradientUnits="userSpaceOnUse">
<stop stop-color="#EEEEEE"/>
<stop offset="1" stop-color="#A4A4A4"/>
</linearGradient>
<linearGradient id="paint1_linear_32_3695" x1="38.181" y1="46.333" x2="103.106" y2="91.754" gradientUnits="userSpaceOnUse">
<stop stop-color="#E0E0E0"/>
<stop offset="1" stop-color="white"/>
</linearGradient>
<linearGradient id="paint2_linear_32_3695" x1="59.0211" y1="78.2203" x2="130.012" y2="102.263" gradientUnits="userSpaceOnUse">
<stop stop-color="#EEEEEE"/>
<stop offset="1" stop-color="#A4A4A4"/>
</linearGradient>
<linearGradient id="paint3_linear_32_3695" x1="79.8613" y1="74.9215" x2="130.359" y2="103.243" gradientUnits="userSpaceOnUse">
<stop stop-color="white"/>
<stop offset="1" stop-color="#C0C0C0" stop-opacity="0"/>
</linearGradient>
</defs>
</svg>
