<svg width="140" height="140" viewBox="0 0 140 140" fill="none" xmlns="http://www.w3.org/2000/svg">
<mask id="path-1-inside-1_32_3680" fill="white">
<path fill-rule="evenodd" clip-rule="evenodd" d="M35.917 87.6188C35.8364 87.6196 35.7558 87.6199 35.675 87.6199C21.3698 87.6199 9.77319 76.0233 9.77319 61.7181C9.77319 47.4129 21.3698 35.8162 35.675 35.8162C40.2987 35.8162 44.6394 37.0277 48.397 39.1505C53.9675 29.1239 64.6661 22.3388 76.9495 22.3388C92.5963 22.3388 105.672 33.3485 108.852 48.0436C109.097 48.0346 109.343 48.0301 109.59 48.0301C120.523 48.0301 129.385 56.8926 129.385 67.825C129.385 78.7574 120.523 87.6199 109.59 87.6199C109.322 87.6199 109.056 87.6146 108.791 87.6041C108.567 87.6146 108.342 87.6199 108.116 87.6199H36.0961C36.0363 87.6199 35.9766 87.6196 35.917 87.6188Z"/>
</mask>
<path fill-rule="evenodd" clip-rule="evenodd" d="M35.917 87.6188C35.8364 87.6196 35.7558 87.6199 35.675 87.6199C21.3698 87.6199 9.77319 76.0233 9.77319 61.7181C9.77319 47.4129 21.3698 35.8162 35.675 35.8162C40.2987 35.8162 44.6394 37.0277 48.397 39.1505C53.9675 29.1239 64.6661 22.3388 76.9495 22.3388C92.5963 22.3388 105.672 33.3485 108.852 48.0436C109.097 48.0346 109.343 48.0301 109.59 48.0301C120.523 48.0301 129.385 56.8926 129.385 67.825C129.385 78.7574 120.523 87.6199 109.59 87.6199C109.322 87.6199 109.056 87.6146 108.791 87.6041C108.567 87.6146 108.342 87.6199 108.116 87.6199H36.0961C36.0363 87.6199 35.9766 87.6196 35.917 87.6188Z" fill="url(#paint0_linear_32_3680)"/>
<path d="M35.917 87.6188L35.9343 86.2227L35.9192 86.2226L35.9042 86.2227L35.917 87.6188ZM48.397 39.1505L47.7103 40.3661L48.9346 41.0578L49.6175 39.8286L48.397 39.1505ZM108.852 48.0436L107.487 48.3389L107.734 49.4817L108.903 49.4388L108.852 48.0436ZM108.791 87.6041L108.846 86.209L108.786 86.2066L108.725 86.2094L108.791 87.6041ZM35.9042 86.2227C35.8279 86.2234 35.7516 86.2237 35.675 86.2237V89.0161C35.76 89.0161 35.8449 89.0157 35.9298 89.0149L35.9042 86.2227ZM35.675 86.2237C22.1409 86.2237 11.1694 75.2522 11.1694 61.7181H8.37702C8.37702 76.7944 20.5988 89.0161 35.675 89.0161V86.2237ZM11.1694 61.7181C11.1694 48.184 22.1409 37.2124 35.675 37.2124V34.42C20.5988 34.42 8.37702 46.6418 8.37702 61.7181H11.1694ZM35.675 37.2124C40.0518 37.2124 44.1567 38.3586 47.7103 40.3661L49.0838 37.9349C45.1221 35.6968 40.5456 34.42 35.675 34.42V37.2124ZM49.6175 39.8286C54.9517 30.2272 65.1934 23.735 76.9495 23.735V20.9426C64.1388 20.9426 52.9832 28.0205 47.1765 38.4725L49.6175 39.8286ZM76.9495 23.735C91.9254 23.735 104.443 34.2727 107.487 48.3389L110.216 47.7483C106.9 32.4242 93.2673 20.9426 76.9495 20.9426V23.735ZM108.903 49.4388C109.131 49.4305 109.36 49.4263 109.59 49.4263V46.6339C109.326 46.6339 109.063 46.6388 108.8 46.6484L108.903 49.4388ZM109.59 49.4263C119.751 49.4263 127.989 57.6637 127.989 67.825H130.781C130.781 56.1215 121.294 46.6339 109.59 46.6339V49.4263ZM127.989 67.825C127.989 77.9863 119.751 86.2237 109.59 86.2237V89.0161C121.294 89.0161 130.781 79.5285 130.781 67.825H127.989ZM109.59 86.2237C109.341 86.2237 109.093 86.2188 108.846 86.209L108.736 88.9991C109.019 89.0104 109.304 89.0161 109.59 89.0161V86.2237ZM108.725 86.2094C108.523 86.2189 108.32 86.2238 108.116 86.2238V89.0161C108.364 89.0161 108.611 89.0103 108.857 88.9987L108.725 86.2094ZM108.116 86.2238H36.0961V89.0161H108.116V86.2238ZM36.0961 86.2238C36.0422 86.2238 35.9882 86.2234 35.9343 86.2227L35.8997 89.0149C35.965 89.0157 36.0305 89.0161 36.0961 89.0161V86.2238Z" fill="url(#paint1_linear_32_3680)" mask="url(#path-1-inside-1_32_3680)"/>
<path d="M91.0563 74.2356L91.1877 74.3123C91.1877 74.3124 91.1877 74.3124 91.1877 74.3124L91.0563 74.2356ZM90.6736 76.3304C90.8359 76.0375 90.9833 75.7742 91.1118 75.5462C91.1384 75.5928 91.1658 75.6409 91.1938 75.6904C91.7555 76.6826 92.5626 78.1902 93.3889 79.856C94.2157 81.5232 95.056 83.3373 95.6878 84.9457C96.0038 85.7501 96.264 86.4938 96.4442 87.1361C96.6275 87.7891 96.7156 88.2943 96.7156 88.6371C96.7156 91.7624 94.1819 94.296 91.0563 94.296C87.9308 94.296 85.3971 91.7624 85.3971 88.6371C85.3971 87.9067 85.7443 86.6802 86.3419 85.1613C86.9269 83.6746 87.7111 82.0053 88.5014 80.4333C89.2906 78.8634 90.0805 77.401 90.6736 76.3304Z" fill="url(#paint2_linear_32_3680)" stroke="url(#paint3_linear_32_3680)" stroke-width="1.39617"/>
<g filter="url(#filter0_f_32_3680)">
<path fill-rule="evenodd" clip-rule="evenodd" d="M97.1602 87.6199L84.699 87.6199C85.5869 83.3921 90.932 74.2356 90.932 74.2356C90.3911 72.8293 96.2128 83.2043 97.1602 87.6199Z" fill="url(#paint4_linear_32_3680)" fill-opacity="0.7"/>
</g>
<path d="M43.1492 83.7491L43.2564 83.8113C43.2564 83.8113 43.2564 83.8113 43.2565 83.8114L43.1492 83.7491ZM42.639 85.3685C42.8632 84.9616 43.0529 84.6234 43.1926 84.3768C43.2698 84.5084 43.3585 84.6629 43.457 84.838C43.9206 85.6615 44.5855 86.9106 45.2659 88.2902C45.9466 89.6704 46.64 91.1755 47.1623 92.5127C47.4235 93.1814 47.6401 93.8034 47.7909 94.344C47.9432 94.8899 48.0223 95.3311 48.0223 95.6459C48.0223 98.3553 45.8387 100.548 43.1492 100.548C40.4598 100.548 38.2762 98.3553 38.2762 95.6459C38.2762 94.9941 38.5777 93.944 39.0681 92.6906C39.5522 91.4533 40.1998 90.0674 40.8504 88.7659C41.5004 87.4655 42.1509 86.2546 42.639 85.3685Z" fill="url(#paint5_linear_32_3680)" stroke="url(#paint6_linear_32_3680)" stroke-width="0.698087"/>
<g filter="url(#filter1_f_32_3680)">
<path fill-rule="evenodd" clip-rule="evenodd" d="M44.9326 88.5281L40.6516 88.5281C41.7695 86.3628 42.7595 84.6573 42.7595 84.6573C42.533 84.0649 43.6652 86.0028 44.9326 88.5281Z" fill="url(#paint7_linear_32_3680)"/>
</g>
<path d="M76.0712 109.526C76.0712 113.036 73.225 115.883 69.7139 115.883C66.2028 115.883 63.3566 113.036 63.3566 109.526C63.3566 106.015 69.7139 95.1241 69.7139 95.1241C69.1253 93.5937 76.0712 106.015 76.0712 109.526Z" fill="url(#paint8_linear_32_3680)"/>
<path d="M112.399 106.051C112.399 108.722 110.264 110.887 107.631 110.887C104.998 110.887 102.863 108.722 102.863 106.051C102.863 103.379 107.631 95.093 107.631 95.093C107.189 93.9286 112.399 103.379 112.399 106.051Z" fill="url(#paint9_linear_32_3680)"/>
<defs>
<filter id="filter0_f_32_3680" x="56.7755" y="46.1822" width="68.3082" height="69.3612" filterUnits="userSpaceOnUse" color-interpolation-filters="sRGB">
<feFlood flood-opacity="0" result="BackgroundImageFix"/>
<feBlend mode="normal" in="SourceGraphic" in2="BackgroundImageFix" result="shape"/>
<feGaussianBlur stdDeviation="13.9617" result="effect1_foregroundBlur_32_3680"/>
</filter>
<filter id="filter1_f_32_3680" x="19.709" y="63.6073" width="46.1663" height="45.8635" filterUnits="userSpaceOnUse" color-interpolation-filters="sRGB">
<feFlood flood-opacity="0" result="BackgroundImageFix"/>
<feBlend mode="normal" in="SourceGraphic" in2="BackgroundImageFix" result="shape"/>
<feGaussianBlur stdDeviation="10.4713" result="effect1_foregroundBlur_32_3680"/>
</filter>
<linearGradient id="paint0_linear_32_3680" x1="9.77319" y1="41.5729" x2="122.473" y2="79.7405" gradientUnits="userSpaceOnUse">
<stop stop-color="#F7F7F7"/>
<stop offset="1" stop-color="#D9D9D9"/>
</linearGradient>
<linearGradient id="paint1_linear_32_3680" x1="46.4381" y1="36.7644" x2="119.467" y2="87.8548" gradientUnits="userSpaceOnUse">
<stop stop-color="#E0E0E0"/>
<stop offset="1" stop-color="white"/>
</linearGradient>
<linearGradient id="paint2_linear_32_3680" x1="91.0563" y1="74.1057" x2="91.0563" y2="94.9941" gradientUnits="userSpaceOnUse">
<stop stop-color="#00A3FF"/>
<stop offset="1" stop-color="#0EC5FF"/>
</linearGradient>
<linearGradient id="paint3_linear_32_3680" x1="91.0563" y1="74.1057" x2="81.7699" y2="110.822" gradientUnits="userSpaceOnUse">
<stop stop-color="white"/>
<stop offset="1" stop-color="white" stop-opacity="0"/>
</linearGradient>
<linearGradient id="paint4_linear_32_3680" x1="90.932" y1="74.1057" x2="90.932" y2="94.9941" gradientUnits="userSpaceOnUse">
<stop stop-color="#00A3FF"/>
<stop offset="1" stop-color="#0EC5FF"/>
</linearGradient>
<linearGradient id="paint5_linear_32_3680" x1="43.1492" y1="83.6417" x2="43.1492" y2="100.897" gradientUnits="userSpaceOnUse">
<stop stop-color="#00A3FF"/>
<stop offset="1" stop-color="#0EC5FF"/>
</linearGradient>
<linearGradient id="paint6_linear_32_3680" x1="43.1492" y1="83.6417" x2="18.5415" y2="125.274" gradientUnits="userSpaceOnUse">
<stop stop-color="white"/>
<stop offset="1" stop-color="white" stop-opacity="0"/>
</linearGradient>
<linearGradient id="paint7_linear_32_3680" x1="42.7595" y1="84.5499" x2="42.7595" y2="101.806" gradientUnits="userSpaceOnUse">
<stop stop-color="#00A3FF"/>
<stop offset="1" stop-color="#0EC5FF"/>
</linearGradient>
<linearGradient id="paint8_linear_32_3680" x1="69.7139" y1="94.9941" x2="69.7139" y2="115.883" gradientUnits="userSpaceOnUse">
<stop stop-color="#00A3FF"/>
<stop offset="1" stop-color="#0EC5FF"/>
</linearGradient>
<linearGradient id="paint9_linear_32_3680" x1="107.631" y1="94.9941" x2="107.631" y2="110.887" gradientUnits="userSpaceOnUse">
<stop stop-color="#00A3FF"/>
<stop offset="1" stop-color="#0EC5FF"/>
</linearGradient>
</defs>
</svg>
