<svg width="140" height="140" viewBox="0 0 140 140" fill="none" xmlns="http://www.w3.org/2000/svg">
<path d="M79.0057 97.2915C79.0057 98.9103 77.6934 100.223 76.0746 100.223C74.4558 100.223 73.1434 98.9103 73.1434 97.2915C73.1434 95.6728 76.0746 90.6515 76.0746 90.6515C75.8032 89.9459 79.0057 95.6728 79.0057 97.2915Z" fill="url(#paint0_linear_32_3677)"/>
<path d="M104.549 102.881C104.549 105.344 102.58 107.341 100.152 107.341C97.7239 107.341 95.7554 105.344 95.7554 102.881C95.7554 100.418 100.152 92.7765 100.152 92.7765C99.745 91.7028 104.549 100.418 104.549 102.881Z" fill="url(#paint1_linear_32_3677)"/>
<mask id="path-3-inside-1_32_3677" fill="white">
<path fill-rule="evenodd" clip-rule="evenodd" d="M39.4654 78.347C39.3913 78.3477 39.3172 78.348 39.243 78.348C26.0517 78.348 15.358 67.6544 15.358 54.4631C15.358 41.2718 26.0517 30.5782 39.243 30.5782C43.5066 30.5782 47.5094 31.6953 50.9744 33.6529C56.1111 24.407 65.9767 18.1503 77.3036 18.1503C91.732 18.1503 103.789 28.3026 106.722 41.8535C106.947 41.8452 107.174 41.841 107.402 41.841C117.484 41.841 125.656 50.0134 125.656 60.0945C125.656 70.1756 117.484 78.348 107.402 78.348C107.156 78.348 106.91 78.3431 106.665 78.3334C106.459 78.3431 106.252 78.348 106.043 78.348L77.3036 78.348L39.6313 78.348C39.5759 78.348 39.5206 78.3477 39.4654 78.347Z"/>
</mask>
<path fill-rule="evenodd" clip-rule="evenodd" d="M39.4654 78.347C39.3913 78.3477 39.3172 78.348 39.243 78.348C26.0517 78.348 15.358 67.6544 15.358 54.4631C15.358 41.2718 26.0517 30.5782 39.243 30.5782C43.5066 30.5782 47.5094 31.6953 50.9744 33.6529C56.1111 24.407 65.9767 18.1503 77.3036 18.1503C91.732 18.1503 103.789 28.3026 106.722 41.8535C106.947 41.8452 107.174 41.841 107.402 41.841C117.484 41.841 125.656 50.0134 125.656 60.0945C125.656 70.1756 117.484 78.348 107.402 78.348C107.156 78.348 106.91 78.3431 106.665 78.3334C106.459 78.3431 106.252 78.348 106.043 78.348L77.3036 78.348L39.6313 78.348C39.5759 78.348 39.5206 78.3477 39.4654 78.347Z" fill="url(#paint2_linear_32_3677)"/>
<path d="M39.4654 78.347L39.4828 76.9509L39.4677 76.9507L39.4526 76.9509L39.4654 78.347ZM50.9744 33.6529L50.2877 34.8685L51.512 35.5602L52.1949 34.331L50.9744 33.6529ZM106.722 41.8535L105.357 42.1487L105.604 43.2915L106.773 43.2487L106.722 41.8535ZM106.665 78.3334L106.721 76.9383L106.66 76.9359L106.6 76.9388L106.665 78.3334ZM106.043 78.348V79.7442V78.348ZM77.3036 78.348V76.9519V78.348ZM39.6313 78.348V79.7442V78.348ZM39.4526 76.9509C39.3828 76.9515 39.3129 76.9518 39.243 76.9518V79.7442C39.3214 79.7442 39.3998 79.7438 39.4781 79.7431L39.4526 76.9509ZM39.243 76.9518C26.8228 76.9518 16.7542 66.8833 16.7542 54.4631H13.9619C13.9619 68.4255 25.2806 79.7442 39.243 79.7442V76.9518ZM16.7542 54.4631C16.7542 42.0429 26.8228 31.9744 39.243 31.9744V29.182C25.2806 29.182 13.9619 40.5007 13.9619 54.4631H16.7542ZM39.243 31.9744C43.2598 31.9744 47.0267 33.0262 50.2877 34.8685L51.6612 32.4373C47.9921 30.3645 43.7535 29.182 39.243 29.182V31.9744ZM52.1949 34.331C57.0953 25.5103 66.5039 19.5464 77.3036 19.5464V16.7541C65.4494 16.7541 55.1269 23.3037 49.754 32.9749L52.1949 34.331ZM77.3036 19.5464C91.0611 19.5464 102.561 29.2268 105.357 42.1487L108.086 41.5582C105.018 27.3784 92.403 16.7541 77.3036 16.7541V19.5464ZM106.773 43.2487C106.982 43.241 107.192 43.2372 107.402 43.2372V40.4448C107.157 40.4448 106.913 40.4493 106.67 40.4582L106.773 43.2487ZM107.402 43.2372C116.712 43.2372 124.26 50.7845 124.26 60.0945H127.052C127.052 49.2423 118.255 40.4448 107.402 40.4448V43.2372ZM124.26 60.0945C124.26 69.4046 116.712 76.9519 107.402 76.9519V79.7442C118.255 79.7442 127.052 70.9467 127.052 60.0945H124.26ZM107.402 76.9519C107.174 76.9519 106.947 76.9473 106.721 76.9383L106.61 79.7285C106.873 79.7389 107.137 79.7442 107.402 79.7442V76.9519ZM106.6 76.9388C106.415 76.9475 106.23 76.9519 106.043 76.9519V79.7442C106.274 79.7442 106.503 79.7388 106.731 79.728L106.6 76.9388ZM106.043 76.9519L77.3036 76.9519V79.7442L106.043 79.7442V76.9519ZM77.3036 76.9519L39.6313 76.9519V79.7442L77.3036 79.7442V76.9519ZM39.6313 76.9519C39.5818 76.9519 39.5323 76.9516 39.4828 76.9509L39.4479 79.7431C39.509 79.7438 39.5701 79.7442 39.6313 79.7442V76.9519Z" fill="url(#paint3_linear_32_3677)" mask="url(#path-3-inside-1_32_3677)"/>
<path d="M43.9824 88.3694L61.4382 62.1176L26.6639 95.8982L43.9824 95.2047L26.6639 121.159L62.6752 88.3694H43.9824Z" fill="url(#paint4_linear_32_3677)" stroke="url(#paint5_linear_32_3677)" stroke-width="1.39617"/>
<g filter="url(#filter0_f_32_3677)">
<path fill-rule="evenodd" clip-rule="evenodd" d="M46.6677 82.5354H39.226L60.2444 62.1176L46.6677 82.5354Z" fill="url(#paint6_linear_32_3677)"/>
</g>
<path d="M87.3806 68.9372L87.5018 69.0079C87.5018 69.0079 87.5018 69.0079 87.5018 69.0079L87.3806 68.9372ZM87.0753 70.8952C87.2054 70.6603 87.3251 70.4461 87.4321 70.256C87.4413 70.2723 87.4507 70.2888 87.4601 70.3054C87.9775 71.2194 88.7213 72.6087 89.4828 74.1441C90.2449 75.6807 91.019 77.352 91.6009 78.8331C91.8919 79.5739 92.1311 80.2578 92.2966 80.8478C92.4652 81.4484 92.5448 81.9085 92.5448 82.2172C92.5448 85.0691 90.2328 87.3811 87.3806 87.3811C84.5285 87.3811 82.2164 85.0691 82.2164 82.2172C82.2164 81.5551 82.5326 80.4329 83.0839 79.0319C83.6225 77.6632 84.3448 76.1256 85.0732 74.6766C85.8005 73.2298 86.5286 71.882 87.0753 70.8952Z" fill="url(#paint7_linear_32_3677)" stroke="url(#paint8_linear_32_3677)" stroke-width="1.39617"/>
<g filter="url(#filter1_f_32_3677)">
<path fill-rule="evenodd" clip-rule="evenodd" d="M93.0091 80.8604H81.5183C82.3372 76.9618 87.266 68.5184 87.266 68.5184C86.7672 67.2216 92.1356 76.7886 93.0091 80.8604Z" fill="url(#paint9_linear_32_3677)" fill-opacity="0.7"/>
</g>
<defs>
<filter id="filter0_f_32_3677" x="14.0948" y="36.9864" width="71.2807" height="70.6801" filterUnits="userSpaceOnUse" color-interpolation-filters="sRGB">
<feFlood flood-opacity="0" result="BackgroundImageFix"/>
<feBlend mode="normal" in="SourceGraphic" in2="BackgroundImageFix" result="shape"/>
<feGaussianBlur stdDeviation="12.5656" result="effect1_foregroundBlur_32_3677"/>
</filter>
<filter id="filter1_f_32_3677" x="53.5948" y="40.4751" width="67.3378" height="68.3088" filterUnits="userSpaceOnUse" color-interpolation-filters="sRGB">
<feFlood flood-opacity="0" result="BackgroundImageFix"/>
<feBlend mode="normal" in="SourceGraphic" in2="BackgroundImageFix" result="shape"/>
<feGaussianBlur stdDeviation="13.9617" result="effect1_foregroundBlur_32_3677"/>
</filter>
<linearGradient id="paint0_linear_32_3677" x1="76.0746" y1="90.5916" x2="76.0746" y2="100.223" gradientUnits="userSpaceOnUse">
<stop stop-color="#00A3FF"/>
<stop offset="1" stop-color="#0EC5FF"/>
</linearGradient>
<linearGradient id="paint1_linear_32_3677" x1="100.152" y1="92.6853" x2="100.152" y2="107.341" gradientUnits="userSpaceOnUse">
<stop stop-color="#00A3FF"/>
<stop offset="1" stop-color="#0EC5FF"/>
</linearGradient>
<linearGradient id="paint2_linear_32_3677" x1="15.358" y1="35.8866" x2="119.282" y2="71.0821" gradientUnits="userSpaceOnUse">
<stop stop-color="#F7F7F7"/>
<stop offset="1" stop-color="#D9D9D9"/>
</linearGradient>
<linearGradient id="paint3_linear_32_3677" x1="49.1679" y1="31.4525" x2="116.511" y2="78.5647" gradientUnits="userSpaceOnUse">
<stop stop-color="#E0E0E0"/>
<stop offset="1" stop-color="white"/>
</linearGradient>
<linearGradient id="paint4_linear_32_3677" x1="44.6696" y1="62.1176" x2="31.3739" y2="127.859" gradientUnits="userSpaceOnUse">
<stop stop-color="#FFE812"/>
<stop offset="1" stop-color="#FFAE12"/>
</linearGradient>
<linearGradient id="paint5_linear_32_3677" x1="95.319" y1="61.8494" x2="16.191" y2="131.399" gradientUnits="userSpaceOnUse">
<stop stop-color="white"/>
<stop offset="1" stop-color="white" stop-opacity="0"/>
</linearGradient>
<linearGradient id="paint6_linear_32_3677" x1="43.4758" y1="62.1176" x2="30.1801" y2="127.859" gradientUnits="userSpaceOnUse">
<stop stop-color="#FFE812"/>
<stop offset="1" stop-color="#FFAE12"/>
</linearGradient>
<linearGradient id="paint7_linear_32_3677" x1="87.3806" y1="68.8173" x2="87.3806" y2="88.0792" gradientUnits="userSpaceOnUse">
<stop stop-color="#00A3FF"/>
<stop offset="1" stop-color="#0EC5FF"/>
</linearGradient>
<linearGradient id="paint8_linear_32_3677" x1="87.3806" y1="68.8173" x2="71.5806" y2="111.825" gradientUnits="userSpaceOnUse">
<stop stop-color="white"/>
<stop offset="1" stop-color="white" stop-opacity="0"/>
</linearGradient>
<linearGradient id="paint9_linear_32_3677" x1="87.266" y1="68.3986" x2="87.266" y2="87.6604" gradientUnits="userSpaceOnUse">
<stop stop-color="#00A3FF"/>
<stop offset="1" stop-color="#0EC5FF"/>
</linearGradient>
</defs>
</svg>
