<svg width="140" height="140" viewBox="0 0 140 140" fill="none" xmlns="http://www.w3.org/2000/svg">
<g opacity="0.5">
<mask id="path-1-inside-1_32_3784" fill="white">
<path fill-rule="evenodd" clip-rule="evenodd" d="M31.4122 106.108C31.3288 106.109 31.2452 106.109 31.1615 106.109C16.4761 106.109 4.57117 94.2044 4.57117 79.5189C4.57117 64.8335 16.4761 52.9285 31.1615 52.9285C35.9082 52.9285 40.3643 54.1723 44.2219 56.3516C49.9404 46.0584 60.9234 39.0929 73.5334 39.0929C89.5962 39.0929 103.019 50.3952 106.284 65.481C106.535 65.4718 106.788 65.4672 107.041 65.4672C118.264 65.4672 127.363 74.5652 127.363 85.7883C127.363 97.0113 118.264 106.109 107.041 106.109C106.766 106.109 106.492 106.104 106.219 106.093C105.99 106.104 105.76 106.109 105.528 106.109H73.5657C73.5549 106.109 73.5441 106.109 73.5334 106.109C73.5226 106.109 73.5118 106.109 73.501 106.109H31.5942C31.5334 106.109 31.4728 106.109 31.4122 106.108Z"/>
</mask>
<path fill-rule="evenodd" clip-rule="evenodd" d="M31.4122 106.108C31.3288 106.109 31.2452 106.109 31.1615 106.109C16.4761 106.109 4.57117 94.2044 4.57117 79.5189C4.57117 64.8335 16.4761 52.9285 31.1615 52.9285C35.9082 52.9285 40.3643 54.1723 44.2219 56.3516C49.9404 46.0584 60.9234 39.0929 73.5334 39.0929C89.5962 39.0929 103.019 50.3952 106.284 65.481C106.535 65.4718 106.788 65.4672 107.041 65.4672C118.264 65.4672 127.363 74.5652 127.363 85.7883C127.363 97.0113 118.264 106.109 107.041 106.109C106.766 106.109 106.492 106.104 106.219 106.093C105.99 106.104 105.76 106.109 105.528 106.109H73.5657C73.5549 106.109 73.5441 106.109 73.5334 106.109C73.5226 106.109 73.5118 106.109 73.501 106.109H31.5942C31.5334 106.109 31.4728 106.109 31.4122 106.108Z" fill="url(#paint0_linear_32_3784)"/>
<path d="M31.4122 106.108L31.4295 104.712L31.4144 104.712L31.3993 104.712L31.4122 106.108ZM44.2219 56.3516L43.5351 57.5672L44.7594 58.2589L45.4423 57.0297L44.2219 56.3516ZM106.284 65.481L104.919 65.7763L105.166 66.9191L106.335 66.8763L106.284 65.481ZM106.219 106.093L106.275 104.698L106.214 104.696L106.154 104.698L106.219 106.093ZM31.3993 104.712C31.3201 104.713 31.2409 104.713 31.1615 104.713V107.505C31.2495 107.505 31.3374 107.505 31.4251 107.504L31.3993 104.712ZM31.1615 104.713C17.2472 104.713 5.96734 93.4333 5.96734 79.5189H3.17499C3.17499 94.9754 15.705 107.505 31.1615 107.505V104.713ZM5.96734 79.5189C5.96734 65.6045 17.2472 54.3247 31.1615 54.3247V51.5324C15.705 51.5324 3.17499 64.0624 3.17499 79.5189H5.96734ZM31.1615 54.3247C35.6613 54.3247 39.8816 55.5031 43.5351 57.5672L44.9086 55.136C40.847 52.8414 36.155 51.5324 31.1615 51.5324V54.3247ZM45.4423 57.0297C50.9246 47.1617 61.4507 40.4891 73.5334 40.4891V37.6967C60.3962 37.6967 48.9562 44.955 43.0014 55.6736L45.4423 57.0297ZM73.5334 40.4891C88.9252 40.4891 101.791 51.3195 104.919 65.7763L107.648 65.1858C104.248 49.471 90.2672 37.6967 73.5334 37.6967V40.4891ZM106.335 66.8763C106.569 66.8677 106.805 66.8633 107.041 66.8633V64.071C106.771 64.071 106.501 64.076 106.232 64.0858L106.335 66.8763ZM107.041 66.8633C117.493 66.8633 125.966 75.3363 125.966 85.7883H128.759C128.759 73.7941 119.036 64.071 107.041 64.071V66.8633ZM125.966 85.7883C125.966 96.2402 117.493 104.713 107.041 104.713V107.506C119.036 107.506 128.759 97.7824 128.759 85.7883H125.966ZM107.041 104.713C106.785 104.713 106.529 104.708 106.275 104.698L106.164 107.488C106.455 107.5 106.748 107.506 107.041 107.506V104.713ZM106.154 104.698C105.947 104.708 105.738 104.713 105.528 104.713V107.505C105.782 107.505 106.034 107.499 106.285 107.488L106.154 104.698ZM105.528 104.713H73.5657V107.505H105.528V104.713ZM73.5657 104.713C73.5597 104.713 73.5538 104.713 73.5485 104.713C73.5431 104.713 73.5382 104.713 73.5334 104.713V107.505C73.5393 107.505 73.5452 107.505 73.5505 107.505C73.556 107.505 73.5609 107.505 73.5657 107.505V104.713ZM73.5334 104.713C73.5285 104.713 73.5237 104.713 73.5182 104.713C73.5129 104.713 73.507 104.713 73.501 104.713V107.505C73.5058 107.505 73.5107 107.505 73.5162 107.505C73.5215 107.505 73.5274 107.505 73.5334 107.505V104.713ZM73.501 104.713H31.5942V107.505H73.501V104.713ZM31.5942 104.713C31.5392 104.713 31.4843 104.713 31.4295 104.712L31.395 107.504C31.4613 107.505 31.5277 107.505 31.5942 107.505V104.713Z" fill="url(#paint1_linear_32_3784)" mask="url(#path-1-inside-1_32_3784)"/>
</g>
<mask id="path-3-inside-2_32_3784" fill="white">
<path fill-rule="evenodd" clip-rule="evenodd" d="M112.281 40.4223C113.386 40.4223 114.283 41.3186 114.283 42.4243V48.4366L116.517 46.341C117.323 45.5845 118.59 45.625 119.346 46.4313C120.103 47.2377 120.062 48.5046 119.256 49.2611L114.283 53.9267V60.722L115.656 61.5152C115.758 61.412 115.872 61.3183 115.999 61.2365L122.092 57.3009L123.39 51.2694C123.623 50.1885 124.687 49.5007 125.768 49.7333C126.849 49.9659 127.537 51.0307 127.304 52.1116L126.849 54.2288L131.471 51.2438C132.399 50.6439 133.639 50.9106 134.238 51.8393C134.838 52.7681 134.572 54.0073 133.643 54.6072L128.428 57.9755L131.665 58.7808C132.738 59.0478 133.391 60.134 133.124 61.2069C132.857 62.2798 131.771 62.9332 130.698 62.6663L123.816 60.9541L118.171 64.5998C117.949 64.7436 117.708 64.8376 117.463 64.8846V66.0264C117.627 66.0786 117.787 66.1528 117.938 66.2501L124.002 70.1423L130.675 68.4621C131.748 68.1922 132.836 68.8425 133.106 69.9147C133.376 70.9869 132.725 72.0749 131.653 72.3448L128.622 73.108L133.438 76.1993C134.368 76.7965 134.638 78.035 134.041 78.9654C133.444 79.8959 132.205 80.166 131.275 79.5687L126.804 76.6988L127.311 79.0263C127.547 80.1066 126.862 81.1733 125.782 81.4089C124.702 81.6445 123.635 80.9598 123.399 79.8795L122.039 73.64L115.775 69.6196C115.677 69.5565 115.586 69.4863 115.503 69.41L114.283 70.1143V76.967L119.256 81.6326C120.062 82.3891 120.103 83.656 119.346 84.4623C118.59 85.2687 117.323 85.3091 116.517 84.5526L114.283 82.457V88.2978C114.283 89.4034 113.386 90.2997 112.281 90.2997C111.175 90.2997 110.279 89.4034 110.279 88.2978V82.7779L108.548 84.5082C107.767 85.29 106.499 85.29 105.717 84.5082C104.935 83.7264 104.935 82.4588 105.717 81.677L110.279 77.1155V69.8798C110.279 69.8699 110.279 69.8601 110.279 69.8503L109.81 69.5796L104.101 73.9063L103.256 80.0369C103.105 81.1322 102.095 81.8977 100.999 81.7468C99.9041 81.5959 99.1385 80.5856 99.2894 79.4903L99.5876 77.3262L95.1956 80.6544C94.3144 81.3222 93.0587 81.1492 92.3909 80.2679C91.7232 79.3867 91.8962 78.131 92.7774 77.4632L97.7118 73.724L94.4416 73.1665C93.3517 72.9807 92.6187 71.9466 92.8045 70.8566C92.9903 69.7667 94.0244 69.0338 95.1144 69.2196L102.087 70.4082L107.457 66.3394C107.489 66.3147 107.522 66.2912 107.556 66.2688V64.6511L102.014 61.0717L95.6042 62.6663C94.5312 62.9332 93.445 62.2798 93.1781 61.2069C92.9112 60.134 93.5646 59.0478 94.6375 58.7808L97.4022 58.093L92.1823 54.7216C91.2535 54.1218 90.9869 52.8826 91.5867 51.9538C92.1866 51.025 93.4258 50.7584 94.3546 51.3583L99.5591 54.7197L98.9979 52.1116C98.7653 51.0307 99.453 49.9659 100.534 49.7333C101.615 49.5007 102.68 50.1885 102.912 51.2694L104.316 57.7918L109.742 61.2963L110.284 60.9834C110.28 60.9368 110.279 60.8897 110.279 60.8423V53.7781L105.717 49.2166C104.935 48.4348 104.935 47.1672 105.717 46.3854C106.499 45.6036 107.767 45.6036 108.548 46.3854L110.279 48.1158V42.4243C110.279 41.3186 111.175 40.4223 112.281 40.4223ZM113.459 64.87L112.51 64.3218L111.56 64.87V65.9664L112.51 66.5146L113.459 65.9664V64.87Z"/>
</mask>
<path fill-rule="evenodd" clip-rule="evenodd" d="M112.281 40.4223C113.386 40.4223 114.283 41.3186 114.283 42.4243V48.4366L116.517 46.341C117.323 45.5845 118.59 45.625 119.346 46.4313C120.103 47.2377 120.062 48.5046 119.256 49.2611L114.283 53.9267V60.722L115.656 61.5152C115.758 61.412 115.872 61.3183 115.999 61.2365L122.092 57.3009L123.39 51.2694C123.623 50.1885 124.687 49.5007 125.768 49.7333C126.849 49.9659 127.537 51.0307 127.304 52.1116L126.849 54.2288L131.471 51.2438C132.399 50.6439 133.639 50.9106 134.238 51.8393C134.838 52.7681 134.572 54.0073 133.643 54.6072L128.428 57.9755L131.665 58.7808C132.738 59.0478 133.391 60.134 133.124 61.2069C132.857 62.2798 131.771 62.9332 130.698 62.6663L123.816 60.9541L118.171 64.5998C117.949 64.7436 117.708 64.8376 117.463 64.8846V66.0264C117.627 66.0786 117.787 66.1528 117.938 66.2501L124.002 70.1423L130.675 68.4621C131.748 68.1922 132.836 68.8425 133.106 69.9147C133.376 70.9869 132.725 72.0749 131.653 72.3448L128.622 73.108L133.438 76.1993C134.368 76.7965 134.638 78.035 134.041 78.9654C133.444 79.8959 132.205 80.166 131.275 79.5687L126.804 76.6988L127.311 79.0263C127.547 80.1066 126.862 81.1733 125.782 81.4089C124.702 81.6445 123.635 80.9598 123.399 79.8795L122.039 73.64L115.775 69.6196C115.677 69.5565 115.586 69.4863 115.503 69.41L114.283 70.1143V76.967L119.256 81.6326C120.062 82.3891 120.103 83.656 119.346 84.4623C118.59 85.2687 117.323 85.3091 116.517 84.5526L114.283 82.457V88.2978C114.283 89.4034 113.386 90.2997 112.281 90.2997C111.175 90.2997 110.279 89.4034 110.279 88.2978V82.7779L108.548 84.5082C107.767 85.29 106.499 85.29 105.717 84.5082C104.935 83.7264 104.935 82.4588 105.717 81.677L110.279 77.1155V69.8798C110.279 69.8699 110.279 69.8601 110.279 69.8503L109.81 69.5796L104.101 73.9063L103.256 80.0369C103.105 81.1322 102.095 81.8977 100.999 81.7468C99.9041 81.5959 99.1385 80.5856 99.2894 79.4903L99.5876 77.3262L95.1956 80.6544C94.3144 81.3222 93.0587 81.1492 92.3909 80.2679C91.7232 79.3867 91.8962 78.131 92.7774 77.4632L97.7118 73.724L94.4416 73.1665C93.3517 72.9807 92.6187 71.9466 92.8045 70.8566C92.9903 69.7667 94.0244 69.0338 95.1144 69.2196L102.087 70.4082L107.457 66.3394C107.489 66.3147 107.522 66.2912 107.556 66.2688V64.6511L102.014 61.0717L95.6042 62.6663C94.5312 62.9332 93.445 62.2798 93.1781 61.2069C92.9112 60.134 93.5646 59.0478 94.6375 58.7808L97.4022 58.093L92.1823 54.7216C91.2535 54.1218 90.9869 52.8826 91.5867 51.9538C92.1866 51.025 93.4258 50.7584 94.3546 51.3583L99.5591 54.7197L98.9979 52.1116C98.7653 51.0307 99.453 49.9659 100.534 49.7333C101.615 49.5007 102.68 50.1885 102.912 51.2694L104.316 57.7918L109.742 61.2963L110.284 60.9834C110.28 60.9368 110.279 60.8897 110.279 60.8423V53.7781L105.717 49.2166C104.935 48.4348 104.935 47.1672 105.717 46.3854C106.499 45.6036 107.767 45.6036 108.548 46.3854L110.279 48.1158V42.4243C110.279 41.3186 111.175 40.4223 112.281 40.4223ZM113.459 64.87L112.51 64.3218L111.56 64.87V65.9664L112.51 66.5146L113.459 65.9664V64.87Z" fill="url(#paint2_linear_32_3784)"/>
<path d="M112.281 40.4223V39.7242V40.4223ZM114.283 48.4366H113.585V50.0487L114.76 48.9457L114.283 48.4366ZM116.517 46.341L116.039 45.8319L116.517 46.341ZM119.346 46.4313L118.837 46.9089V46.9089L119.346 46.4313ZM119.256 49.2611L118.778 48.7519V48.7519L119.256 49.2611ZM114.283 53.9267L113.805 53.4176L113.585 53.6244V53.9267H114.283ZM114.283 60.722H113.585V61.1251L113.934 61.3266L114.283 60.722ZM115.656 61.5152L115.307 62.1197L115.775 62.3898L116.154 62.0047L115.656 61.5152ZM115.999 61.2365L116.378 61.8229L116.378 61.8229L115.999 61.2365ZM122.092 57.3009L122.471 57.8873L122.714 57.7304L122.775 57.4477L122.092 57.3009ZM123.39 51.2694L124.073 51.4162V51.4162L123.39 51.2694ZM125.768 49.7333L125.915 49.0508H125.915L125.768 49.7333ZM127.304 52.1116L126.622 51.9647L127.304 52.1116ZM126.849 54.2288L126.166 54.0819L125.812 55.7296L127.228 54.8152L126.849 54.2288ZM131.471 51.2438L131.092 50.6574L131.471 51.2438ZM134.238 51.8393L133.652 52.2181L134.238 51.8393ZM133.643 54.6072L134.022 55.1936V55.1936L133.643 54.6072ZM128.428 57.9755L128.049 57.3891L126.695 58.2637L128.259 58.6529L128.428 57.9755ZM131.665 58.7808L131.496 59.4583L131.665 58.7808ZM133.124 61.2069L132.447 61.0384L133.124 61.2069ZM130.698 62.6663L130.53 63.3438L130.698 62.6663ZM123.816 60.9541L123.984 60.2767L123.691 60.2037L123.437 60.3677L123.816 60.9541ZM118.171 64.5998L117.793 64.0134H117.793L118.171 64.5998ZM117.463 64.8846L117.332 64.1991L116.765 64.3078V64.8846H117.463ZM117.463 66.0264H116.765V66.5367L117.251 66.6916L117.463 66.0264ZM117.938 66.2501L118.315 65.6626L117.938 66.2501ZM124.002 70.1423L123.625 70.7298L123.879 70.8931L124.172 70.8193L124.002 70.1423ZM130.675 68.4621L130.505 67.7851L130.675 68.4621ZM133.106 69.9147L132.429 70.0851L133.106 69.9147ZM131.653 72.3448L131.483 71.6679L131.653 72.3448ZM128.622 73.108L128.451 72.431L126.888 72.8246L128.245 73.6955L128.622 73.108ZM133.438 76.1993L133.061 76.7867L133.438 76.1993ZM134.041 78.9654L134.628 79.3425V79.3425L134.041 78.9654ZM131.275 79.5687L131.652 78.9813L131.275 79.5687ZM126.804 76.6988L127.181 76.1113L125.763 75.2009L126.122 76.8475L126.804 76.6988ZM127.311 79.0263L126.629 79.1751L127.311 79.0263ZM125.782 81.4089L125.633 80.7268L125.782 81.4089ZM123.399 79.8795L122.717 80.0283L123.399 79.8795ZM122.039 73.64L122.721 73.4913L122.659 73.2088L122.416 73.0526L122.039 73.64ZM115.775 69.6196L116.152 69.0321L116.152 69.0321L115.775 69.6196ZM115.503 69.41L115.974 68.8951L115.597 68.5496L115.154 68.8054L115.503 69.41ZM114.283 70.1143L113.934 69.5098L113.585 69.7113V70.1143H114.283ZM114.283 76.967H113.585V77.2692L113.805 77.4761L114.283 76.967ZM119.256 81.6326L119.734 81.1235L119.256 81.6326ZM119.346 84.4623L119.855 84.94L119.346 84.4623ZM116.517 84.5526L116.994 84.0435L116.517 84.5526ZM114.283 82.457L114.76 81.9479L113.585 80.8449V82.457H114.283ZM110.279 82.7779H110.977V81.0925L109.785 82.2843L110.279 82.7779ZM108.548 84.5082L109.042 85.0018V85.0018L108.548 84.5082ZM105.717 84.5082L105.224 85.0018L105.224 85.0018L105.717 84.5082ZM105.717 81.677L106.211 82.1706L105.717 81.677ZM110.279 77.1155L110.772 77.6091L110.977 77.4047V77.1155H110.279ZM110.279 69.8503L110.977 69.8603L110.983 69.4506L110.628 69.2457L110.279 69.8503ZM109.81 69.5796L110.159 68.9751L109.758 68.7434L109.389 69.0232L109.81 69.5796ZM104.101 73.9063L103.679 73.3499L103.449 73.5246L103.409 73.811L104.101 73.9063ZM103.256 80.0369L103.947 80.1322L103.256 80.0369ZM100.999 81.7468L100.904 82.4384L100.999 81.7468ZM99.2894 79.4903L99.981 79.5856L99.2894 79.4903ZM99.5876 77.3262L100.279 77.4215L100.509 75.7519L99.166 76.7698L99.5876 77.3262ZM95.1956 80.6544L95.6172 81.2108L95.1956 80.6544ZM92.3909 80.2679L91.8345 80.6896L91.8345 80.6896L92.3909 80.2679ZM92.7774 77.4632L93.199 78.0196L92.7774 77.4632ZM97.7118 73.724L98.1335 74.2804L99.4183 73.3067L97.8292 73.0358L97.7118 73.724ZM94.4416 73.1665L94.5589 72.4784H94.5589L94.4416 73.1665ZM92.8045 70.8566L93.4926 70.9739H93.4926L92.8045 70.8566ZM95.1144 69.2196L95.2317 68.5314H95.2317L95.1144 69.2196ZM102.087 70.4082L101.97 71.0963L102.268 71.1471L102.509 70.9646L102.087 70.4082ZM107.457 66.3394L107.878 66.8958L107.878 66.8958L107.457 66.3394ZM107.556 66.2688L107.944 66.8494L108.254 66.6421V66.2688H107.556ZM107.556 64.6511H108.254V64.2709L107.935 64.0647L107.556 64.6511ZM102.014 61.0717L102.393 60.4852L102.139 60.3212L101.845 60.3942L102.014 61.0717ZM95.6042 62.6663L95.7727 63.3438H95.7727L95.6042 62.6663ZM93.1781 61.2069L93.8555 61.0384L93.8555 61.0384L93.1781 61.2069ZM94.6375 58.7808L94.8061 59.4583H94.8061L94.6375 58.7808ZM97.4022 58.093L97.5707 58.7705L99.1351 58.3813L97.7809 57.5066L97.4022 58.093ZM92.1823 54.7216L92.561 54.1352L92.1823 54.7216ZM91.5867 51.9538L92.1731 52.3325H92.1731L91.5867 51.9538ZM94.3546 51.3583L93.9758 51.9447L94.3546 51.3583ZM99.5591 54.7197L99.1803 55.3061L100.596 56.2205L100.242 54.5728L99.5591 54.7197ZM98.9979 52.1116L99.6804 51.9647V51.9647L98.9979 52.1116ZM100.534 49.7333L100.387 49.0508L100.534 49.7333ZM102.912 51.2694L102.23 51.4162V51.4162L102.912 51.2694ZM104.316 57.7918L103.633 57.9386L103.694 58.2213L103.937 58.3782L104.316 57.7918ZM109.742 61.2963L109.363 61.8828L109.721 62.1142L110.091 61.9009L109.742 61.2963ZM110.284 60.9834L110.633 61.588L111.01 61.3699L110.98 60.9349L110.284 60.9834ZM110.279 53.7781H110.977V53.489L110.772 53.2845L110.279 53.7781ZM105.717 49.2166L105.224 49.7102L105.717 49.2166ZM105.717 46.3854L106.211 46.8791L106.211 46.8791L105.717 46.3854ZM108.548 46.3854L108.055 46.8791L108.548 46.3854ZM110.279 48.1158L109.785 48.6094L110.977 49.8011V48.1158H110.279ZM112.51 64.3218L112.859 63.7172L112.51 63.5157L112.161 63.7172L112.51 64.3218ZM113.459 64.87H114.157V64.4669L113.808 64.2654L113.459 64.87ZM111.56 64.87L111.211 64.2654L110.862 64.4669V64.87H111.56ZM111.56 65.9664H110.862V66.3694L111.211 66.571L111.56 65.9664ZM112.51 66.5146L112.161 67.1192L112.51 67.3207L112.859 67.1192L112.51 66.5146ZM113.459 65.9664L113.808 66.571L114.157 66.3694V65.9664H113.459ZM114.981 42.4243C114.981 40.9331 113.772 39.7242 112.281 39.7242V41.1204C113.001 41.1204 113.585 41.7042 113.585 42.4243H114.981ZM114.981 48.4366V42.4243H113.585V48.4366H114.981ZM116.039 45.8319L113.805 47.9275L114.76 48.9457L116.994 46.8501L116.039 45.8319ZM119.855 45.9537C118.835 44.8661 117.126 44.8116 116.039 45.8319L116.994 46.8501C117.519 46.3574 118.344 46.3838 118.837 46.9089L119.855 45.9537ZM119.734 49.7702C120.821 48.7499 120.876 47.0412 119.855 45.9537L118.837 46.9089C119.33 47.4341 119.304 48.2593 118.778 48.7519L119.734 49.7702ZM114.76 54.4358L119.734 49.7702L118.778 48.7519L113.805 53.4176L114.76 54.4358ZM114.981 60.722V53.9267H113.585V60.722H114.981ZM116.005 60.9106L114.632 60.1175L113.934 61.3266L115.307 62.1197L116.005 60.9106ZM116.154 62.0047C116.22 61.9379 116.294 61.8767 116.378 61.8229L115.62 60.65C115.45 60.7598 115.296 60.8861 115.159 61.0256L116.154 62.0047ZM116.378 61.8229L122.471 57.8873L121.714 56.7145L115.62 60.65L116.378 61.8229ZM122.775 57.4477L124.073 51.4162L122.708 51.1225L121.41 57.1541L122.775 57.4477ZM124.073 51.4162C124.224 50.7122 124.918 50.2643 125.622 50.4158L125.915 49.0508C124.457 48.7372 123.021 49.6647 122.708 51.1225L124.073 51.4162ZM125.622 50.4158C126.326 50.5673 126.773 51.2607 126.622 51.9647L127.987 52.2584C128.301 50.8006 127.373 49.3645 125.915 49.0508L125.622 50.4158ZM126.622 51.9647L126.166 54.0819L127.531 54.3756L127.987 52.2584L126.622 51.9647ZM127.228 54.8152L131.849 51.8302L131.092 50.6574L126.47 53.6424L127.228 54.8152ZM131.849 51.8302C132.454 51.4395 133.261 51.6132 133.652 52.2181L134.825 51.4606C134.016 50.2079 132.344 49.8483 131.092 50.6574L131.849 51.8302ZM133.652 52.2181C134.043 52.823 133.869 53.6301 133.264 54.0208L134.022 55.1936C135.274 54.3845 135.634 52.7132 134.825 51.4606L133.652 52.2181ZM133.264 54.0208L128.049 57.3891L128.806 58.5619L134.022 55.1936L133.264 54.0208ZM128.259 58.6529L131.496 59.4583L131.833 58.1034L128.596 57.2981L128.259 58.6529ZM131.496 59.4583C132.195 59.6321 132.621 60.3396 132.447 61.0384L133.802 61.3754C134.162 59.9284 133.28 58.4634 131.833 58.1034L131.496 59.4583ZM132.447 61.0384C132.273 61.7372 131.566 62.1627 130.867 61.9889L130.53 63.3438C131.977 63.7038 133.442 62.8225 133.802 61.3754L132.447 61.0384ZM130.867 61.9889L123.984 60.2767L123.647 61.6316L130.53 63.3438L130.867 61.9889ZM123.437 60.3677L117.793 64.0134L118.55 65.1862L124.195 61.5405L123.437 60.3677ZM117.793 64.0134C117.646 64.1078 117.49 64.1686 117.332 64.1991L117.595 65.5702C117.926 65.5066 118.251 65.3794 118.55 65.1862L117.793 64.0134ZM118.161 66.0264V64.8846H116.765V66.0264H118.161ZM117.251 66.6916C117.357 66.7254 117.461 66.7736 117.561 66.8376L118.315 65.6626C118.112 65.5321 117.896 65.4318 117.675 65.3613L117.251 66.6916ZM117.561 66.8376L123.625 70.7298L124.379 69.5549L118.315 65.6626L117.561 66.8376ZM124.172 70.8193L130.846 69.1391L130.505 67.7851L123.831 69.4654L124.172 70.8193ZM130.846 69.1391C131.544 68.9632 132.253 69.3868 132.429 70.0851L133.783 69.7443C133.418 68.2982 131.951 67.4211 130.505 67.7851L130.846 69.1391ZM132.429 70.0851C132.604 70.7834 132.181 71.4921 131.483 71.6679L131.823 73.0218C133.269 72.6577 134.147 71.1903 133.783 69.7443L132.429 70.0851ZM131.483 71.6679L128.451 72.431L128.792 73.785L131.823 73.0218L131.483 71.6679ZM128.245 73.6955L133.061 76.7867L133.815 75.6118L128.999 72.5205L128.245 73.6955ZM133.061 76.7867C133.667 77.1757 133.842 77.9823 133.453 78.5883L134.628 79.3425C135.434 78.0876 135.07 76.4173 133.815 75.6118L133.061 76.7867ZM133.453 78.5883C133.064 79.1943 132.258 79.3703 131.652 78.9813L130.898 80.1562C132.153 80.9617 133.823 80.5974 134.628 79.3425L133.453 78.5883ZM131.652 78.9813L127.181 76.1113L126.427 77.2863L130.898 80.1562L131.652 78.9813ZM126.122 76.8475L126.629 79.1751L127.993 78.8776L127.486 76.55L126.122 76.8475ZM126.629 79.1751C126.783 79.8786 126.337 80.5734 125.633 80.7268L125.931 82.0909C127.388 81.7732 128.311 80.3345 127.993 78.8776L126.629 79.1751ZM125.633 80.7268C124.93 80.8803 124.235 80.4343 124.081 79.7308L122.717 80.0283C123.035 81.4852 124.474 82.4087 125.931 82.0909L125.633 80.7268ZM124.081 79.7308L122.721 73.4913L121.356 73.7888L122.717 80.0283L124.081 79.7308ZM122.416 73.0526L116.152 69.0321L115.398 70.207L121.661 74.2275L122.416 73.0526ZM116.152 69.0321C116.088 68.9906 116.028 68.9447 115.974 68.8951L115.031 69.9248C115.144 70.0278 115.266 70.1224 115.398 70.207L116.152 69.0321ZM114.632 70.7189L115.852 70.0145L115.154 68.8054L113.934 69.5098L114.632 70.7189ZM113.585 70.1143V76.967H114.981V70.1143H113.585ZM113.805 77.4761L118.778 82.1417L119.734 81.1235L114.76 76.4578L113.805 77.4761ZM118.778 82.1417C119.304 82.6344 119.33 83.4595 118.837 83.9847L119.855 84.94C120.876 83.8524 120.821 82.1437 119.734 81.1235L118.778 82.1417ZM118.837 83.9847C118.344 84.5099 117.519 84.5362 116.994 84.0435L116.039 85.0618C117.126 86.082 118.835 86.0275 119.855 84.94L118.837 83.9847ZM116.994 84.0435L114.76 81.9479L113.805 82.9661L116.039 85.0618L116.994 84.0435ZM113.585 82.457V88.2978H114.981V82.457H113.585ZM113.585 88.2978C113.585 89.0179 113.001 89.6016 112.281 89.6016V90.9978C113.772 90.9978 114.981 89.789 114.981 88.2978H113.585ZM112.281 89.6016C111.561 89.6016 110.977 89.0179 110.977 88.2978H109.581C109.581 89.789 110.79 90.9978 112.281 90.9978V89.6016ZM110.977 88.2978V82.7779H109.581V88.2978H110.977ZM109.785 82.2843L108.055 84.0146L109.042 85.0018L110.772 83.2715L109.785 82.2843ZM108.055 84.0146C107.546 84.5238 106.72 84.5238 106.211 84.0146L105.224 85.0018C106.278 86.0563 107.988 86.0563 109.042 85.0018L108.055 84.0146ZM106.211 84.0146C105.702 83.5054 105.702 82.6798 106.211 82.1706L105.224 81.1834C104.169 82.2378 104.169 83.9474 105.224 85.0018L106.211 84.0146ZM106.211 82.1706L110.772 77.6091L109.785 76.6219L105.224 81.1834L106.211 82.1706ZM110.977 77.1155V69.8798H109.581V77.1155H110.977ZM110.977 69.8798C110.977 69.8733 110.977 69.8669 110.977 69.8603L109.581 69.8402C109.581 69.8533 109.581 69.8665 109.581 69.8798H110.977ZM109.461 70.1842L109.93 70.4548L110.628 69.2457L110.159 68.9751L109.461 70.1842ZM104.522 74.4627L110.232 70.136L109.389 69.0232L103.679 73.3499L104.522 74.4627ZM103.947 80.1322L104.792 74.0016L103.409 73.811L102.564 79.9416L103.947 80.1322ZM100.904 82.4384C102.381 82.6419 103.744 81.6094 103.947 80.1322L102.564 79.9416C102.466 80.6549 101.808 81.1536 101.095 81.0553L100.904 82.4384ZM98.5979 79.395C98.3943 80.8723 99.4268 82.2348 100.904 82.4384L101.095 81.0553C100.381 80.957 99.8827 80.299 99.981 79.5856L98.5979 79.395ZM98.8961 77.2309L98.5979 79.395L99.981 79.5856L100.279 77.4215L98.8961 77.2309ZM95.6172 81.2108L100.009 77.8826L99.166 76.7698L94.774 80.098L95.6172 81.2108ZM91.8345 80.6896C92.7352 81.8781 94.4287 82.1114 95.6172 81.2108L94.774 80.098C94.2001 80.5329 93.3822 80.4202 92.9473 79.8463L91.8345 80.6896ZM92.3558 76.9069C91.1673 77.8075 90.9339 79.5011 91.8345 80.6896L92.9473 79.8463C92.5124 79.2724 92.6251 78.4545 93.199 78.0196L92.3558 76.9069ZM97.2902 73.1676L92.3558 76.9069L93.199 78.0196L98.1335 74.2804L97.2902 73.1676ZM94.3243 73.8547L97.5945 74.4121L97.8292 73.0358L94.5589 72.4784L94.3243 73.8547ZM92.1163 70.7393C91.8658 72.2093 92.8543 73.6041 94.3243 73.8547L94.5589 72.4784C93.849 72.3574 93.3716 71.6838 93.4926 70.9739L92.1163 70.7393ZM95.2317 68.5314C93.7617 68.2808 92.3669 69.2694 92.1163 70.7393L93.4926 70.9739C93.6137 70.2641 94.2872 69.7867 94.9971 69.9077L95.2317 68.5314ZM102.205 69.72L95.2317 68.5314L94.9971 69.9077L101.97 71.0963L102.205 69.72ZM107.035 65.783L101.666 69.8518L102.509 70.9646L107.878 66.8958L107.035 65.783ZM107.168 65.6881C107.123 65.7183 107.079 65.7499 107.035 65.783L107.878 66.8958C107.9 66.8795 107.922 66.8641 107.944 66.8494L107.168 65.6881ZM106.858 64.6511V66.2688H108.254V64.6511H106.858ZM101.635 61.6581L107.177 65.2375L107.935 64.0647L102.393 60.4852L101.635 61.6581ZM95.7727 63.3438L102.182 61.7491L101.845 60.3942L95.4356 61.9889L95.7727 63.3438ZM92.5007 61.3754C92.8607 62.8225 94.3256 63.7038 95.7727 63.3438L95.4356 61.9889C94.7368 62.1627 94.0294 61.7372 93.8555 61.0384L92.5007 61.3754ZM94.469 58.1034C93.0219 58.4634 92.1407 59.9284 92.5007 61.3754L93.8555 61.0384C93.6817 60.3396 94.1073 59.6321 94.8061 59.4583L94.469 58.1034ZM97.2336 57.4156L94.469 58.1034L94.8061 59.4583L97.5707 58.7705L97.2336 57.4156ZM91.8035 55.3081L97.0234 58.6794L97.7809 57.5066L92.561 54.1352L91.8035 55.3081ZM91.0003 51.575C90.1913 52.8277 90.5509 54.499 91.8035 55.3081L92.561 54.1352C91.9561 53.7445 91.7825 52.9374 92.1731 52.3325L91.0003 51.575ZM94.7333 50.7718C93.4807 49.9628 91.8094 50.3224 91.0003 51.5751L92.1731 52.3325C92.5638 51.7276 93.3709 51.554 93.9758 51.9447L94.7333 50.7718ZM99.9378 54.1333L94.7333 50.7718L93.9758 51.9447L99.1803 55.3061L99.9378 54.1333ZM98.3154 52.2584L98.8766 54.8665L100.242 54.5728L99.6804 51.9647L98.3154 52.2584ZM100.387 49.0508C98.9293 49.3645 98.0018 50.8006 98.3154 52.2584L99.6804 51.9647C99.5289 51.2607 99.9768 50.5673 100.681 50.4158L100.387 49.0508ZM103.595 51.1225C103.281 49.6647 101.845 48.7372 100.387 49.0508L100.681 50.4158C101.385 50.2643 102.078 50.7122 102.23 51.4162L103.595 51.1225ZM104.998 57.645L103.595 51.1225L102.23 51.4162L103.633 57.9386L104.998 57.645ZM110.12 60.7099L104.694 57.2054L103.937 58.3782L109.363 61.8828L110.12 60.7099ZM109.935 60.3788L109.393 60.6918L110.091 61.9009L110.633 61.588L109.935 60.3788ZM109.581 60.8423C109.581 60.9059 109.583 60.9692 109.587 61.0319L110.98 60.9349C110.978 60.9044 110.977 60.8735 110.977 60.8423H109.581ZM109.581 53.7781V60.8423H110.977V53.7781H109.581ZM105.224 49.7102L109.785 54.2718L110.772 53.2845L106.211 48.723L105.224 49.7102ZM105.224 45.8918C104.169 46.9462 104.169 48.6558 105.224 49.7102L106.211 48.723C105.702 48.2138 105.702 47.3882 106.211 46.8791L105.224 45.8918ZM109.042 45.8918C107.988 44.8374 106.278 44.8374 105.224 45.8918L106.211 46.8791C106.72 46.3699 107.546 46.3699 108.055 46.8791L109.042 45.8918ZM110.772 47.6221L109.042 45.8918L108.055 46.8791L109.785 48.6094L110.772 47.6221ZM109.581 42.4243V48.1158H110.977V42.4243H109.581ZM112.281 39.7242C110.79 39.7242 109.581 40.9331 109.581 42.4243H110.977C110.977 41.7042 111.561 41.1204 112.281 41.1204V39.7242ZM112.161 64.9263L113.11 65.4745L113.808 64.2654L112.859 63.7172L112.161 64.9263ZM111.909 65.4745L112.859 64.9263L112.161 63.7172L111.211 64.2654L111.909 65.4745ZM112.258 65.9664V64.87H110.862V65.9664H112.258ZM112.859 65.91L111.909 65.3618L111.211 66.571L112.161 67.1192L112.859 65.91ZM113.11 65.3618L112.161 65.91L112.859 67.1192L113.808 66.571L113.11 65.3618ZM112.761 64.87V65.9664H114.157V64.87H112.761Z" fill="url(#paint3_linear_32_3784)" mask="url(#path-3-inside-2_32_3784)"/>
<g filter="url(#filter0_f_32_3784)">
<path fill-rule="evenodd" clip-rule="evenodd" d="M108.036 79.2517H106.486V77.8229L105.817 78.4927C105.514 78.7952 105.023 78.7952 104.721 78.4927C104.418 78.1901 104.418 77.6996 104.721 77.397L106.486 75.6316V72.8315L106.486 72.8202L106.305 72.7154L104.095 74.3899L103.768 76.7623C103.71 77.1861 103.319 77.4824 102.895 77.424C102.471 77.3656 102.175 76.9746 102.233 76.5508L102.349 75.7133L100.649 77.0013C100.308 77.2597 99.8222 77.1927 99.5638 76.8517C99.3054 76.5107 99.3723 76.0247 99.7134 75.7663L101.623 74.3192L100.357 74.1035C99.9355 74.0316 99.6519 73.6314 99.7238 73.2096C99.7957 72.7878 100.196 72.5041 100.618 72.576L103.316 73.036L105.394 71.4615C105.407 71.4519 105.42 71.4428 105.433 71.4342V70.8081L103.288 69.4229L100.807 70.04C100.392 70.1433 99.9716 69.8904 99.8683 69.4752C99.765 69.06 100.018 68.6396 100.433 68.5363L101.503 68.2702L99.4829 66.9654C99.1235 66.7333 99.0203 66.2537 99.2525 65.8943C99.4846 65.5348 99.9642 65.4317 100.324 65.6638L102.338 66.9647L102.121 65.9554C102.031 65.5371 102.297 65.125 102.715 65.035C103.133 64.945 103.545 65.2111 103.635 65.6294L104.178 68.1536L106.278 69.5098L106.488 69.3887C106.487 69.3707 106.486 69.3525 106.486 69.3341V66.6005L104.721 64.8351C104.418 64.5325 104.418 64.042 104.721 63.7394C105.023 63.4368 105.514 63.4368 105.817 63.7394L106.486 64.4092V62.2064C106.486 61.7786 106.833 61.4317 107.261 61.4317C107.689 61.4317 108.036 61.7786 108.036 62.2064V64.5331L108.9 63.7222C109.212 63.4295 109.702 63.4451 109.995 63.7572C110.288 64.0692 110.272 64.5595 109.96 64.8523L108.036 66.6577V69.2876L108.567 69.5945C108.607 69.5546 108.651 69.5183 108.7 69.4867L111.058 67.9636L111.56 65.6294C111.65 65.2111 112.062 64.945 112.481 65.035C112.899 65.125 113.165 65.5371 113.075 65.9554L112.899 66.7747L114.687 65.6196C115.047 65.3874 115.526 65.4906 115.759 65.85C115.991 66.2095 115.887 66.689 115.528 66.9212L113.51 68.2247L114.763 68.5363C115.178 68.6396 115.431 69.06 115.327 69.4752C115.224 69.8904 114.804 70.1433 114.389 70.04L111.725 69.3774L109.541 70.7883C109.454 70.8439 109.361 70.8803 109.267 70.8985V71.3404C109.33 71.3606 109.392 71.3893 109.45 71.4269L111.797 72.9332L114.38 72.2829C114.794 72.1785 115.216 72.4302 115.32 72.8451C115.424 73.26 115.173 73.6811 114.758 73.7855L113.585 74.0809L115.449 75.2772C115.809 75.5083 115.913 75.9876 115.682 76.3477C115.451 76.7078 114.972 76.8123 114.612 76.5812L112.881 75.4705L113.078 76.3712C113.169 76.7893 112.904 77.2021 112.486 77.2933C112.068 77.3845 111.655 77.1195 111.564 76.7014L111.037 74.2867L108.613 72.7309C108.575 72.7065 108.54 72.6793 108.508 72.6498L108.036 72.9223V75.5744L109.96 77.3798C110.272 77.6726 110.288 78.1629 109.995 78.4749C109.702 78.787 109.212 78.8026 108.9 78.5099L108.036 77.699V79.2517ZM107.35 70.6807L107.717 70.8928V71.3171L107.35 71.5293L106.982 71.3171V70.8928L107.35 70.6807Z" fill="#3CD0FF" fill-opacity="0.6"/>
</g>
<defs>
<filter id="filter0_f_32_3784" x="82.3743" y="44.6776" width="50.2623" height="51.3282" filterUnits="userSpaceOnUse" color-interpolation-filters="sRGB">
<feFlood flood-opacity="0" result="BackgroundImageFix"/>
<feBlend mode="normal" in="SourceGraphic" in2="BackgroundImageFix" result="shape"/>
<feGaussianBlur stdDeviation="8.37705" result="effect1_foregroundBlur_32_3784"/>
</filter>
<linearGradient id="paint0_linear_32_3784" x1="4.57117" y1="58.8382" x2="120.266" y2="98.0203" gradientUnits="userSpaceOnUse">
<stop stop-color="#EEEEEE"/>
<stop offset="1" stop-color="#A4A4A4"/>
</linearGradient>
<linearGradient id="paint1_linear_32_3784" x1="42.2107" y1="53.9019" x2="117.181" y2="106.35" gradientUnits="userSpaceOnUse">
<stop stop-color="#E0E0E0"/>
<stop offset="1" stop-color="white"/>
</linearGradient>
<linearGradient id="paint2_linear_32_3784" x1="97.6187" y1="93.751" x2="121.975" y2="45.4443" gradientUnits="userSpaceOnUse">
<stop stop-color="#3CD0FF"/>
<stop offset="1" stop-color="#D0E9FF"/>
</linearGradient>
<linearGradient id="paint3_linear_32_3784" x1="88.6881" y1="51.9392" x2="168.658" y2="99.4338" gradientUnits="userSpaceOnUse">
<stop stop-color="#F9F9F9" stop-opacity="0.69"/>
<stop offset="1" stop-color="white" stop-opacity="0.7"/>
</linearGradient>
</defs>
</svg>
