<svg width="140" height="140" viewBox="0 0 140 140" fill="none" xmlns="http://www.w3.org/2000/svg">
<g clip-path="url(#clip0_32_3790)">
<g filter="url(#filter0_f_32_3790)">
<mask id="path-1-inside-1_32_3790" fill="white">
<path fill-rule="evenodd" clip-rule="evenodd" d="M58.8856 75.2526C77.46 75.2526 92.5175 60.1951 92.5175 41.6208C92.5175 36.1934 91.2319 31.0663 88.9486 26.5273C100.38 31.8986 108.296 43.5167 108.296 56.9835C108.296 75.5579 93.238 90.6154 74.6637 90.6154C61.5167 90.6154 50.1316 83.0718 44.6007 72.077C48.9365 74.1141 53.7781 75.2526 58.8856 75.2526Z"/>
</mask>
<path fill-rule="evenodd" clip-rule="evenodd" d="M58.8856 75.2526C77.46 75.2526 92.5175 60.1951 92.5175 41.6208C92.5175 36.1934 91.2319 31.0663 88.9486 26.5273C100.38 31.8986 108.296 43.5167 108.296 56.9835C108.296 75.5579 93.238 90.6154 74.6637 90.6154C61.5167 90.6154 50.1316 83.0718 44.6007 72.077C48.9365 74.1141 53.7781 75.2526 58.8856 75.2526Z" fill="#FFBC1C" fill-opacity="0.6"/>
<path d="M88.9486 26.5273L89.5423 25.2637L85.8858 23.5457L87.7013 27.1548L88.9486 26.5273ZM44.6007 72.077L45.1944 70.8133L41.5379 69.0953L43.3535 72.7044L44.6007 72.077ZM91.1213 41.6208C91.1213 59.424 76.6889 73.8565 58.8856 73.8565V76.6488C78.2311 76.6488 93.9137 60.9662 93.9137 41.6208H91.1213ZM87.7013 27.1548C89.8889 31.5035 91.1213 36.4162 91.1213 41.6208H93.9137C93.9137 35.9706 92.5748 30.6291 90.1959 25.8999L87.7013 27.1548ZM88.3549 27.791C99.3154 32.9407 106.899 44.0779 106.899 56.9835H109.692C109.692 42.9555 101.446 30.8564 89.5423 25.2637L88.3549 27.791ZM106.899 56.9835C106.899 74.7868 92.4669 89.2192 74.6637 89.2192V92.0115C94.0091 92.0115 109.692 76.329 109.692 56.9835H106.899ZM74.6637 89.2192C62.0645 89.2192 51.151 81.9914 45.848 71.4495L43.3535 72.7044C49.1122 84.1522 60.9689 92.0115 74.6637 92.0115V89.2192ZM58.8856 73.8565C53.9876 73.8565 49.3483 72.765 45.1944 70.8133L44.007 73.3406C48.5246 75.4632 53.5686 76.6488 58.8856 76.6488V73.8565Z" fill="url(#paint0_linear_32_3790)" mask="url(#path-1-inside-1_32_3790)"/>
</g>
<mask id="path-3-inside-2_32_3790" fill="white">
<path fill-rule="evenodd" clip-rule="evenodd" d="M58.8856 75.2526C77.46 75.2526 92.5175 60.1951 92.5175 41.6208C92.5175 36.1934 91.2319 31.0663 88.9486 26.5273C100.38 31.8986 108.296 43.5167 108.296 56.9835C108.296 75.5579 93.238 90.6154 74.6637 90.6154C61.5167 90.6154 50.1316 83.0718 44.6007 72.077C48.9365 74.1141 53.7781 75.2526 58.8856 75.2526Z"/>
</mask>
<path fill-rule="evenodd" clip-rule="evenodd" d="M58.8856 75.2526C77.46 75.2526 92.5175 60.1951 92.5175 41.6208C92.5175 36.1934 91.2319 31.0663 88.9486 26.5273C100.38 31.8986 108.296 43.5167 108.296 56.9835C108.296 75.5579 93.238 90.6154 74.6637 90.6154C61.5167 90.6154 50.1316 83.0718 44.6007 72.077C48.9365 74.1141 53.7781 75.2526 58.8856 75.2526Z" fill="url(#paint1_linear_32_3790)" fill-opacity="0.8"/>
<path d="M88.9486 26.5273L89.5423 25.2637L85.8858 23.5457L87.7013 27.1548L88.9486 26.5273ZM44.6007 72.077L45.1944 70.8133L41.5379 69.0953L43.3535 72.7044L44.6007 72.077ZM91.1213 41.6208C91.1213 59.424 76.6889 73.8565 58.8856 73.8565V76.6488C78.2311 76.6488 93.9137 60.9662 93.9137 41.6208H91.1213ZM87.7013 27.1548C89.8889 31.5035 91.1213 36.4162 91.1213 41.6208H93.9137C93.9137 35.9706 92.5748 30.6291 90.1959 25.8999L87.7013 27.1548ZM88.3549 27.791C99.3154 32.9407 106.899 44.0779 106.899 56.9835H109.692C109.692 42.9555 101.446 30.8564 89.5423 25.2637L88.3549 27.791ZM106.899 56.9835C106.899 74.7868 92.4669 89.2192 74.6637 89.2192V92.0115C94.0091 92.0115 109.692 76.329 109.692 56.9835H106.899ZM74.6637 89.2192C62.0645 89.2192 51.151 81.9914 45.848 71.4495L43.3535 72.7044C49.1122 84.1522 60.9689 92.0115 74.6637 92.0115V89.2192ZM58.8856 73.8565C53.9876 73.8565 49.3483 72.765 45.1944 70.8133L44.007 73.3406C48.5246 75.4632 53.5686 76.6488 58.8856 76.6488V73.8565Z" fill="url(#paint2_linear_32_3790)" mask="url(#path-3-inside-2_32_3790)"/>
<g filter="url(#filter1_df_32_3790)">
<rect x="87.5092" y="57.4836" width="42.7742" height="20.1039" rx="10.0519" fill="url(#paint3_linear_32_3790)" fill-opacity="0.8" shape-rendering="crispEdges"/>
</g>
<g filter="url(#filter2_df_32_3790)">
<path fill-rule="evenodd" clip-rule="evenodd" d="M18.4289 74.5934C12.8774 74.5934 8.37695 79.0938 8.37695 84.6453C8.37695 90.1969 12.8774 94.6973 18.4289 94.6973H37.2676C36.8391 96.0465 36.6079 97.4835 36.6079 98.9746C36.6079 106.77 42.9277 113.09 50.7234 113.09H116.168C123.964 113.09 130.284 106.77 130.284 98.9746C130.284 91.1789 123.964 84.8591 116.168 84.8591H81.9464C81.9479 84.788 81.9486 84.7168 81.9486 84.6453C81.9486 79.0938 77.4482 74.5934 71.8967 74.5934H18.4289Z" fill="url(#paint4_linear_32_3790)" fill-opacity="0.7" shape-rendering="crispEdges"/>
</g>
</g>
<defs>
<filter id="filter0_f_32_3790" x="4.11164" y="-13.9617" width="144.673" height="145.066" filterUnits="userSpaceOnUse" color-interpolation-filters="sRGB">
<feFlood flood-opacity="0" result="BackgroundImageFix"/>
<feBlend mode="normal" in="SourceGraphic" in2="BackgroundImageFix" result="shape"/>
<feGaussianBlur stdDeviation="20.2445" result="effect1_foregroundBlur_32_3790"/>
</filter>
<filter id="filter1_df_32_3790" x="51.2086" y="26.7678" width="115.375" height="92.705" filterUnits="userSpaceOnUse" color-interpolation-filters="sRGB">
<feFlood flood-opacity="0" result="BackgroundImageFix"/>
<feColorMatrix in="SourceAlpha" type="matrix" values="0 0 0 0 0 0 0 0 0 0 0 0 0 0 0 0 0 0 127 0" result="hardAlpha"/>
<feOffset dy="5.5847"/>
<feGaussianBlur stdDeviation="18.1503"/>
<feComposite in2="hardAlpha" operator="out"/>
<feColorMatrix type="matrix" values="0 0 0 0 0 0 0 0 0 0 0 0 0 0 0 0 0 0 0.13 0"/>
<feBlend mode="normal" in2="BackgroundImageFix" result="effect1_dropShadow_32_3790"/>
<feBlend mode="normal" in="SourceGraphic" in2="effect1_dropShadow_32_3790" result="shape"/>
<feGaussianBlur stdDeviation="3.49044" result="effect2_foregroundBlur_32_3790"/>
</filter>
<filter id="filter2_df_32_3790" x="-5.5848" y="66.2163" width="149.83" height="66.4203" filterUnits="userSpaceOnUse" color-interpolation-filters="sRGB">
<feFlood flood-opacity="0" result="BackgroundImageFix"/>
<feColorMatrix in="SourceAlpha" type="matrix" values="0 0 0 0 0 0 0 0 0 0 0 0 0 0 0 0 0 0 127 0" result="hardAlpha"/>
<feOffset dy="5.5847"/>
<feGaussianBlur stdDeviation="6.98087"/>
<feComposite in2="hardAlpha" operator="out"/>
<feColorMatrix type="matrix" values="0 0 0 0 0 0 0 0 0 0 0 0 0 0 0 0 0 0 0.13 0"/>
<feBlend mode="normal" in2="BackgroundImageFix" result="effect1_dropShadow_32_3790"/>
<feBlend mode="normal" in="SourceGraphic" in2="effect1_dropShadow_32_3790" result="shape"/>
<feGaussianBlur stdDeviation="2.79235" result="effect2_foregroundBlur_32_3790"/>
</filter>
<linearGradient id="paint0_linear_32_3790" x1="76.4481" y1="26.5273" x2="76.4481" y2="90.6153" gradientUnits="userSpaceOnUse">
<stop stop-color="white"/>
<stop offset="1" stop-color="white" stop-opacity="0"/>
</linearGradient>
<linearGradient id="paint1_linear_32_3790" x1="76.4481" y1="26.5273" x2="54.5657" y2="90.4694" gradientUnits="userSpaceOnUse">
<stop stop-color="#FFBC1C"/>
<stop offset="1" stop-color="#FFFA7D"/>
</linearGradient>
<linearGradient id="paint2_linear_32_3790" x1="99.8033" y1="39.0938" x2="44.6007" y2="103.721" gradientUnits="userSpaceOnUse">
<stop stop-color="white"/>
<stop offset="1" stop-color="white" stop-opacity="0"/>
</linearGradient>
<linearGradient id="paint3_linear_32_3790" x1="130.949" y1="64.588" x2="87.8476" y2="75.1935" gradientUnits="userSpaceOnUse">
<stop stop-color="#EDEDED"/>
<stop offset="1" stop-color="white"/>
</linearGradient>
<linearGradient id="paint4_linear_32_3790" x1="131.742" y1="94.8356" x2="44.4834" y2="128.32" gradientUnits="userSpaceOnUse">
<stop stop-color="#EDEDED"/>
<stop offset="1" stop-color="white"/>
</linearGradient>
<clipPath id="clip0_32_3790">
<rect width="140" height="140" fill="white"/>
</clipPath>
</defs>
</svg>
